G04*
G04 #@! TF.GenerationSoftware,Altium Limited,Altium Designer,20.0.2 (26)*
G04*
G04 Layer_Color=255*
%FSLAX25Y25*%
%MOIN*%
G70*
G01*
G75*
%ADD20R,0.02559X0.02362*%
%ADD24R,0.21654X0.05906*%
%ADD93R,0.05906X0.05906*%
%ADD94C,0.05906*%
%ADD95R,0.05906X0.05906*%
%ADD96C,0.19685*%
%ADD97R,0.19685X0.19685*%
%ADD98C,0.11024*%
D20*
X565880Y266634D02*
D03*
Y263288D02*
D03*
X593351Y266634D02*
D03*
Y263288D02*
D03*
X620823Y266634D02*
D03*
Y263288D02*
D03*
X648294Y266634D02*
D03*
Y263288D02*
D03*
D24*
X90565Y405905D02*
D03*
Y427953D02*
D03*
D93*
X577559Y302756D02*
D03*
X604987D02*
D03*
X632415D02*
D03*
X659842D02*
D03*
X150327Y220866D02*
D03*
X177819D02*
D03*
X205311D02*
D03*
X232610Y220866D02*
D03*
X260102D02*
D03*
X287595D02*
D03*
D94*
X577559Y292913D02*
D03*
Y273228D02*
D03*
Y283071D02*
D03*
Y253543D02*
D03*
Y263386D02*
D03*
Y243701D02*
D03*
X604987Y292913D02*
D03*
Y273228D02*
D03*
Y283071D02*
D03*
Y253543D02*
D03*
Y263386D02*
D03*
Y243701D02*
D03*
X132106Y330842D02*
D03*
X191161D02*
D03*
X201004D02*
D03*
X171476D02*
D03*
X181319D02*
D03*
X161634D02*
D03*
X151791D02*
D03*
X141949D02*
D03*
X210846D02*
D03*
X132106Y303350D02*
D03*
X191161D02*
D03*
X201004D02*
D03*
X171476D02*
D03*
X181319D02*
D03*
X161634D02*
D03*
X151791D02*
D03*
X141949D02*
D03*
X210846D02*
D03*
X632415Y292913D02*
D03*
Y273228D02*
D03*
Y283071D02*
D03*
Y253543D02*
D03*
Y263386D02*
D03*
Y243701D02*
D03*
X659842Y292913D02*
D03*
Y273228D02*
D03*
Y283071D02*
D03*
Y253543D02*
D03*
Y263386D02*
D03*
Y243701D02*
D03*
X553307Y424996D02*
D03*
X494252D02*
D03*
X484410D02*
D03*
X513937D02*
D03*
X504095D02*
D03*
X523779D02*
D03*
X533622D02*
D03*
X543465D02*
D03*
X474567D02*
D03*
X553307Y397504D02*
D03*
X494252D02*
D03*
X484410D02*
D03*
X513937D02*
D03*
X504095D02*
D03*
X523779D02*
D03*
X533622D02*
D03*
X543465D02*
D03*
X474567D02*
D03*
X150327Y230709D02*
D03*
Y250394D02*
D03*
Y240551D02*
D03*
Y260236D02*
D03*
X177819Y230709D02*
D03*
Y250394D02*
D03*
Y240551D02*
D03*
Y260236D02*
D03*
X205311Y230709D02*
D03*
Y250394D02*
D03*
Y240551D02*
D03*
Y260236D02*
D03*
X232610Y230709D02*
D03*
Y250394D02*
D03*
Y240551D02*
D03*
Y260236D02*
D03*
X356693Y451181D02*
D03*
X366693D02*
D03*
X260102Y230709D02*
D03*
Y250394D02*
D03*
Y240551D02*
D03*
Y260236D02*
D03*
X287595Y230709D02*
D03*
Y250394D02*
D03*
Y240551D02*
D03*
Y260236D02*
D03*
X372244Y464173D02*
D03*
X352244D02*
D03*
X342244D02*
D03*
X332244D02*
D03*
X362244D02*
D03*
X438661Y451181D02*
D03*
X418661D02*
D03*
X388661D02*
D03*
X398661D02*
D03*
X408661D02*
D03*
X428661D02*
D03*
X385748Y349213D02*
D03*
X405748D02*
D03*
X435748D02*
D03*
X425748D02*
D03*
X415748D02*
D03*
X395748D02*
D03*
D95*
X220689Y330842D02*
D03*
Y303350D02*
D03*
X464724Y424996D02*
D03*
Y397504D02*
D03*
X346693Y451181D02*
D03*
X322244Y464173D02*
D03*
X378661Y451181D02*
D03*
X445748Y349213D02*
D03*
D96*
X538583Y298425D02*
D03*
X462205D02*
D03*
D97*
X510236D02*
D03*
X433858D02*
D03*
D98*
X497835Y274803D02*
D03*
X550984D02*
D03*
X421457D02*
D03*
X474606D02*
D03*
M02*
