G04*
G04 #@! TF.GenerationSoftware,Altium Limited,Altium Designer,20.0.2 (26)*
G04*
G04 Layer_Color=65535*
%FSLAX25Y25*%
%MOIN*%
G70*
G01*
G75*
%ADD10C,0.01000*%
%ADD11C,0.00787*%
%ADD12C,0.02362*%
%ADD13C,0.01181*%
%ADD14C,0.00591*%
%ADD15C,0.00600*%
%ADD16C,0.00394*%
%ADD17R,0.63386X0.21654*%
D10*
X610236Y177165D02*
G03*
X610236Y177165I-19685J0D01*
G01*
Y452756D02*
G03*
X610236Y452756I-19685J0D01*
G01*
X216535D02*
G03*
X216535Y452756I-19685J0D01*
G01*
Y177165D02*
G03*
X216535Y177165I-19685J0D01*
G01*
X498912Y306170D02*
G03*
X492520Y293457I8963J-12470D01*
G01*
X556299D02*
G03*
X549189Y306656I-15354J243D01*
G01*
X382509Y238504D02*
G03*
X382509Y238504I-500J0D01*
G01*
X358059Y257206D02*
G03*
X358059Y257206I-500J0D01*
G01*
X344374Y310237D02*
G03*
X344374Y310237I-4610J0D01*
G01*
X346565D02*
G03*
X346565Y310237I-6801J0D01*
G01*
X443819Y341539D02*
G03*
X443819Y341539I-500J0D01*
G01*
X422534Y306170D02*
G03*
X416142Y293457I8963J-12470D01*
G01*
X479921D02*
G03*
X472811Y306656I-15354J243D01*
G01*
X279636Y445669D02*
G03*
X279636Y445669I-6801J0D01*
G01*
X277445D02*
G03*
X277445Y445669I-4610J0D01*
G01*
X304216D02*
G03*
X304216Y445669I-4610J0D01*
G01*
X306407D02*
G03*
X306407Y445669I-6801J0D01*
G01*
X492520Y266929D02*
X548032D01*
X556299Y258661D01*
Y241339D02*
Y258661D01*
X548031Y233071D02*
X556299Y241339D01*
X492520Y233071D02*
X548031D01*
X492520Y266929D02*
Y268898D01*
Y280709D02*
Y293668D01*
X546457Y306693D02*
X549189D01*
X556299Y280709D02*
Y293457D01*
X521654Y306693D02*
X530709D01*
X492520Y233071D02*
Y266929D01*
X543504Y233071D02*
Y266929D01*
X533661Y233071D02*
Y266929D01*
X515158Y233071D02*
Y266929D01*
X505315Y233071D02*
Y266929D01*
X385109Y213004D02*
Y236604D01*
X363809Y213004D02*
Y236604D01*
X359459Y260306D02*
X383059D01*
X359459Y239006D02*
X383059D01*
X351575Y298425D02*
Y322047D01*
X327953Y298425D02*
Y322047D01*
Y298425D02*
X351575D01*
X327953Y322047D02*
X351575D01*
X445276Y341142D02*
X452362D01*
X445276Y328937D02*
X452362D01*
X416142Y266929D02*
X471654D01*
X479921Y258661D01*
Y241339D02*
Y258661D01*
X471653Y233071D02*
X479921Y241339D01*
X416142Y233071D02*
X471653D01*
X416142Y266929D02*
Y268898D01*
Y280709D02*
Y293668D01*
X470079Y306693D02*
X472811D01*
X479921Y280709D02*
Y293457D01*
X445276Y306693D02*
X454331D01*
X416142Y233071D02*
Y266929D01*
X467126Y233071D02*
Y266929D01*
X457283Y233071D02*
Y266929D01*
X438779Y233071D02*
Y266929D01*
X428937Y233071D02*
Y266929D01*
X284646Y433858D02*
Y457480D01*
X261024Y433858D02*
Y457480D01*
X284646D01*
X261024Y433858D02*
X284646D01*
X287795Y457480D02*
X311417D01*
X287795Y433858D02*
X311417D01*
Y457480D01*
X287795Y433858D02*
Y457480D01*
X94550Y180315D02*
X90551D01*
X94550Y184314D01*
Y185313D01*
X93550Y186313D01*
X91551D01*
X90551Y185313D01*
X96549D02*
X97549Y186313D01*
X99548D01*
X100548Y185313D01*
Y181315D01*
X99548Y180315D01*
X97549D01*
X96549Y181315D01*
Y185313D01*
X106546Y180315D02*
X102547D01*
X106546Y184314D01*
Y185313D01*
X105546Y186313D01*
X103547D01*
X102547Y185313D01*
X108545D02*
X109545Y186313D01*
X111544D01*
X112544Y185313D01*
Y181315D01*
X111544Y180315D01*
X109545D01*
X108545Y181315D01*
Y185313D01*
X114543D02*
X115543Y186313D01*
X117543D01*
X118542Y185313D01*
Y181315D01*
X117543Y180315D01*
X115543D01*
X114543Y181315D01*
Y185313D01*
X124540Y186313D02*
X120542D01*
Y183314D01*
X122541Y184314D01*
X123540D01*
X124540Y183314D01*
Y181315D01*
X123540Y180315D01*
X121541D01*
X120542Y181315D01*
X126540Y180315D02*
X128539D01*
X127539D01*
Y186313D01*
X126540Y185313D01*
X131538D02*
X132538Y186313D01*
X134537D01*
X135537Y185313D01*
Y184314D01*
X134537Y183314D01*
X133537D01*
X134537D01*
X135537Y182314D01*
Y181315D01*
X134537Y180315D01*
X132538D01*
X131538Y181315D01*
X141535Y180315D02*
X137536D01*
X141535Y184314D01*
Y185313D01*
X140535Y186313D01*
X138536D01*
X137536Y185313D01*
X147533Y180315D02*
X143534D01*
X147533Y184314D01*
Y185313D01*
X146533Y186313D01*
X144534D01*
X143534Y185313D01*
X149532D02*
X150532Y186313D01*
X152531D01*
X153531Y185313D01*
Y184314D01*
X152531Y183314D01*
X151531D01*
X152531D01*
X153531Y182314D01*
Y181315D01*
X152531Y180315D01*
X150532D01*
X149532Y181315D01*
X155530D02*
X156530Y180315D01*
X158529D01*
X159529Y181315D01*
Y185313D01*
X158529Y186313D01*
X156530D01*
X155530Y185313D01*
Y184314D01*
X156530Y183314D01*
X159529D01*
D11*
X419685Y329134D02*
G03*
X422047Y329134I1181J0D01*
G01*
X422047D02*
G03*
X424409Y329134I1181J0D01*
G01*
D02*
G03*
X426772Y329134I1181J0D01*
G01*
X417323D02*
G03*
X419685Y329134I1181J0D01*
G01*
X347343Y233563D02*
Y238091D01*
X355020Y233563D02*
Y238091D01*
X347343Y233563D02*
X350000D01*
X352362D02*
X355020D01*
X347343Y238091D02*
X350000D01*
X352362D02*
X355020D01*
X245964Y430413D02*
Y434941D01*
X238287Y430413D02*
Y434941D01*
X243307D02*
X245964D01*
X238287D02*
X240945D01*
X243307Y430413D02*
X245964D01*
X238287D02*
X240945D01*
X574016Y215748D02*
X580315D01*
X574016D02*
Y220866D01*
X580315Y215748D02*
Y220866D01*
X574016Y224803D02*
Y229921D01*
X580315Y224803D02*
Y229921D01*
X574016D02*
X580315D01*
X601181Y215879D02*
X607480D01*
X601181D02*
Y220997D01*
X607480Y215879D02*
Y220997D01*
X601181Y224934D02*
Y230052D01*
X607480Y224934D02*
Y230052D01*
X601181D02*
X607480D01*
X329626Y435728D02*
X334154D01*
X329626Y428051D02*
X334154D01*
X329626Y433071D02*
Y435728D01*
Y428051D02*
Y430709D01*
X334154Y433071D02*
Y435728D01*
Y428051D02*
Y430709D01*
X313484Y366634D02*
Y371162D01*
X321162Y366634D02*
Y371162D01*
X313484Y366634D02*
X316142D01*
X318504D02*
X321162D01*
X313484Y371162D02*
X316142D01*
X318504D02*
X321162D01*
X399508Y413878D02*
Y418405D01*
X391830Y413878D02*
Y418405D01*
X396850D02*
X399508D01*
X391830D02*
X394488D01*
X396850Y413878D02*
X399508D01*
X391830D02*
X394488D01*
X370276Y344980D02*
Y349508D01*
X377953Y344980D02*
Y349508D01*
X370276Y344980D02*
X372933D01*
X375295D02*
X377953D01*
X370276Y349508D02*
X372933D01*
X375295D02*
X377953D01*
X397933Y368602D02*
Y373130D01*
X390256Y368602D02*
Y373130D01*
X395275D02*
X397933D01*
X390256D02*
X392913D01*
X395275Y368602D02*
X397933D01*
X390256D02*
X392913D01*
X337106Y346949D02*
X341634D01*
X337106Y354626D02*
X341634D01*
Y346949D02*
Y349606D01*
Y351969D02*
Y354626D01*
X337106Y346949D02*
Y349606D01*
Y351969D02*
Y354626D01*
X629528Y215617D02*
X635827D01*
X629528D02*
Y220735D01*
X635827Y215617D02*
Y220735D01*
X629528Y224672D02*
Y229790D01*
X635827Y224672D02*
Y229790D01*
X629528D02*
X635827D01*
X657087Y215748D02*
X663386D01*
X657087D02*
Y220866D01*
X663386Y215748D02*
Y220866D01*
X657087Y224803D02*
Y229921D01*
X663386Y224803D02*
Y229921D01*
X657087D02*
X663386D01*
X146457Y285827D02*
X152756D01*
Y280709D02*
Y285827D01*
X146457Y280709D02*
Y285827D01*
X152756Y271654D02*
Y276772D01*
X146457Y271654D02*
Y276772D01*
Y271654D02*
X152756D01*
X174213Y285827D02*
X180512D01*
Y280709D02*
Y285827D01*
X174213Y280709D02*
Y285827D01*
X180512Y271654D02*
Y276772D01*
X174213Y271654D02*
Y276772D01*
Y271654D02*
X180512D01*
X201969Y285827D02*
X208268D01*
Y280709D02*
Y285827D01*
X201969Y280709D02*
Y285827D01*
X208268Y271654D02*
Y276772D01*
X201969Y271654D02*
Y276772D01*
Y271654D02*
X208268D01*
X229528Y286221D02*
X235827D01*
Y281102D02*
Y286221D01*
X229528Y281102D02*
Y286221D01*
X235827Y272047D02*
Y277165D01*
X229528Y272047D02*
Y277165D01*
Y272047D02*
X235827D01*
X256496Y286221D02*
X262795D01*
Y281102D02*
Y286221D01*
X256496Y281102D02*
Y286221D01*
X262795Y272047D02*
Y277165D01*
X256496Y272047D02*
Y277165D01*
Y272047D02*
X262795D01*
X284252Y286221D02*
X290551D01*
Y281102D02*
Y286221D01*
X284252Y281102D02*
Y286221D01*
X290551Y272047D02*
Y277165D01*
X284252Y272047D02*
Y277165D01*
Y272047D02*
X290551D01*
X364666Y358563D02*
X369193D01*
X364666Y350886D02*
X369193D01*
X364666Y355905D02*
Y358563D01*
Y350886D02*
Y353543D01*
X369193Y355905D02*
Y358563D01*
Y350886D02*
Y353543D01*
X378839Y461910D02*
Y466437D01*
X386516Y461910D02*
Y466437D01*
X378839Y461910D02*
X381496D01*
X383858D02*
X386516D01*
X378839Y466437D02*
X381496D01*
X383858D02*
X386516D01*
X348031Y209449D02*
Y215748D01*
X353150D01*
X348031Y209449D02*
X353150D01*
X357087Y215748D02*
X362205D01*
X357087Y209449D02*
X362205D01*
Y215748D01*
X348016Y216398D02*
Y222697D01*
X353134D01*
X348016Y216398D02*
X353134D01*
X357071Y222697D02*
X362189D01*
X357071Y216398D02*
X362189D01*
Y222697D01*
X329331Y240945D02*
X332677Y240945D01*
X329331Y240945D02*
Y245669D01*
X332677Y245669D01*
X335827Y240945D02*
X339173D01*
Y245669D01*
X335827D02*
X339173D01*
X339567Y240945D02*
X342913Y240945D01*
X339567Y240945D02*
Y245669D01*
X342913Y245669D01*
X346063Y240945D02*
X349410D01*
Y245669D01*
X346063D02*
X349410D01*
X399508Y409547D02*
Y414075D01*
X391830Y409547D02*
Y414075D01*
X396850D02*
X399508D01*
X391830D02*
X394488D01*
X396850Y409547D02*
X399508D01*
X391830D02*
X394488D01*
X333957Y435728D02*
X338485D01*
X333957Y428051D02*
X338485D01*
X333957Y433071D02*
Y435728D01*
Y428051D02*
Y430709D01*
X338485Y433071D02*
Y435728D01*
Y428051D02*
Y430709D01*
X329823Y230019D02*
Y234547D01*
X322146Y230019D02*
Y234547D01*
X327165D02*
X329823D01*
X322146D02*
X324803D01*
X327165Y230019D02*
X329823D01*
X322146D02*
X324803D01*
X517323Y311811D02*
Y318110D01*
X522441D01*
X517323Y311811D02*
X522441D01*
X526378Y318110D02*
X531496D01*
X526378Y311811D02*
X531496D01*
Y318110D01*
X356299Y223622D02*
X362598D01*
X356299D02*
Y228740D01*
X362598Y223622D02*
Y228740D01*
X356299Y232677D02*
Y237795D01*
X362598Y232677D02*
Y237795D01*
X356299D02*
X362598D01*
X317028Y226673D02*
X321555D01*
X317028Y218996D02*
X321555D01*
X317028Y224016D02*
Y226673D01*
Y218996D02*
Y221653D01*
X321555Y224016D02*
Y226673D01*
Y218996D02*
Y221653D01*
X313705Y241535D02*
Y247835D01*
X318823D01*
X313705Y241535D02*
X318823D01*
X322760Y247835D02*
X327878D01*
X322760Y241535D02*
X327878D01*
Y247835D01*
X313779Y235039D02*
Y241339D01*
X318898D01*
X313779Y235039D02*
X318898D01*
X322835Y241339D02*
X327953D01*
X322835Y235039D02*
X327953D01*
Y241339D01*
X364666Y349901D02*
X369193D01*
X364666Y342224D02*
X369193D01*
X364666Y347244D02*
Y349901D01*
Y342224D02*
Y344882D01*
X369193Y347244D02*
Y349901D01*
Y342224D02*
Y344882D01*
X341831Y354626D02*
X346359D01*
X341831Y346949D02*
X346359D01*
X341831Y351968D02*
Y354626D01*
Y346949D02*
Y349606D01*
X346359Y351968D02*
Y354626D01*
Y346949D02*
Y349606D01*
X321752Y230216D02*
X326280D01*
X321752Y222539D02*
X326280D01*
X321752Y227559D02*
Y230216D01*
Y222539D02*
Y225197D01*
X326280Y227559D02*
Y230216D01*
Y222539D02*
Y225197D01*
X326083Y230216D02*
X330611D01*
X326083Y222539D02*
X330611D01*
X326083Y227559D02*
Y230216D01*
Y222539D02*
Y225197D01*
X330611Y227559D02*
Y230216D01*
Y222539D02*
Y225197D01*
X422933Y382382D02*
X427460D01*
X422933Y390059D02*
X427460D01*
Y382382D02*
Y385039D01*
Y387402D02*
Y390059D01*
X422933Y382382D02*
Y385039D01*
Y387402D02*
Y390059D01*
X458071Y335433D02*
X461417Y335433D01*
X458071Y335433D02*
Y340158D01*
X461417Y340158D01*
X464567Y335433D02*
X467913D01*
Y340158D01*
X464567D02*
X467913D01*
X454445Y310291D02*
Y316591D01*
X449327Y310291D02*
X454445D01*
X449327Y316591D02*
X454445D01*
X440272Y310291D02*
X445390D01*
X440272Y316591D02*
X445390D01*
X440272Y310291D02*
Y316591D01*
X454331Y316929D02*
Y323228D01*
X449213Y316929D02*
X454331D01*
X449213Y323228D02*
X454331D01*
X440158Y316929D02*
X445276D01*
X440158Y323228D02*
X445276D01*
X440158Y316929D02*
Y323228D01*
X448819Y328346D02*
X452165Y328346D01*
Y323622D02*
Y328346D01*
X448819Y323622D02*
X452165Y323622D01*
X442323Y328346D02*
X445669D01*
X442323Y323622D02*
Y328346D01*
Y323622D02*
X445669D01*
X466634Y335334D02*
X471162D01*
X466634Y327657D02*
X471162D01*
X466634Y332677D02*
Y335334D01*
Y327657D02*
Y330315D01*
X471162Y332677D02*
Y335334D01*
Y327657D02*
Y330315D01*
X399213Y336221D02*
X402559Y336221D01*
Y331496D02*
Y336221D01*
X399213Y331496D02*
X402559Y331496D01*
X392717Y336221D02*
X396063D01*
X392717Y331496D02*
Y336221D01*
Y331496D02*
X396063D01*
X399213Y331496D02*
X402559Y331496D01*
Y326772D02*
Y331496D01*
X399213Y326772D02*
X402559Y326772D01*
X392717Y331496D02*
X396063D01*
X392717Y326772D02*
Y331496D01*
Y326772D02*
X396063D01*
X399213Y326772D02*
X402559Y326772D01*
Y322047D02*
Y326772D01*
X399213Y322047D02*
X402559Y322047D01*
X392717Y326772D02*
X396063D01*
X392717Y322047D02*
Y326772D01*
Y322047D02*
X396063D01*
X568110Y240748D02*
Y305709D01*
Y312598D01*
Y233858D02*
Y240748D01*
X570472D01*
Y305709D01*
X570472Y305709D02*
X570472Y305709D01*
X568110Y305709D02*
X570472D01*
X568110Y233858D02*
X590551D01*
X568110Y312598D02*
X590551D01*
Y233858D02*
Y312598D01*
X595538Y240748D02*
Y305709D01*
Y312598D01*
Y233858D02*
Y240748D01*
X597900D01*
Y305709D01*
X597900Y305709D02*
X597900Y305709D01*
X595538Y305709D02*
X597900D01*
X595538Y233858D02*
X617979D01*
X595538Y312598D02*
X617979D01*
Y233858D02*
Y312598D01*
X122264Y317850D02*
X230532D01*
Y340291D01*
X122264Y317850D02*
Y340291D01*
X223642Y337929D02*
Y340291D01*
X223642Y337929D02*
X223642Y337929D01*
X129154Y337929D02*
X223642D01*
X129154D02*
Y340291D01*
X122264D02*
X129154D01*
X223642D02*
X230532D01*
X129154D02*
X223642D01*
X122264Y290358D02*
X230532D01*
Y312799D01*
X122264Y290358D02*
Y312799D01*
X223642Y310437D02*
Y312799D01*
X223642Y310437D02*
X223642Y310437D01*
X129154Y310437D02*
X223642D01*
X129154D02*
Y312799D01*
X122264D02*
X129154D01*
X223642D02*
X230532D01*
X129154D02*
X223642D01*
X622966Y240748D02*
Y305709D01*
Y312598D01*
Y233858D02*
Y240748D01*
X625328D01*
Y305709D01*
X625328Y305709D02*
X625328Y305709D01*
X622966Y305709D02*
X625328D01*
X622966Y233858D02*
X645407D01*
X622966Y312598D02*
X645407D01*
Y233858D02*
Y312598D01*
X650394Y240748D02*
Y305709D01*
Y312598D01*
Y233858D02*
Y240748D01*
X652756D01*
Y305709D01*
X652756Y305709D02*
X652756Y305709D01*
X650394Y305709D02*
X652756D01*
X650394Y233858D02*
X672835D01*
X650394Y312598D02*
X672835D01*
Y233858D02*
Y312598D01*
X454882Y437988D02*
X563150D01*
X454882Y415547D02*
Y437988D01*
X563150Y415547D02*
Y437988D01*
X461772Y415547D02*
Y417909D01*
X461772Y417909D01*
X556260D01*
Y415547D02*
Y417909D01*
Y415547D02*
X563150D01*
X454882D02*
X461772D01*
X556260D01*
X454882Y410496D02*
X563150D01*
X454882Y388055D02*
Y410496D01*
X563150Y388055D02*
Y410496D01*
X461772Y388055D02*
Y390417D01*
X461772Y390417D01*
X556260D01*
Y388055D02*
Y390417D01*
Y388055D02*
X563150D01*
X454882D02*
X461772D01*
X556260D01*
X159776Y217913D02*
Y263189D01*
X137335Y211024D02*
Y270079D01*
Y211024D02*
X159776D01*
X137335Y270079D02*
X159776D01*
X157413Y217913D02*
X159776D01*
X157413Y217913D02*
X157413Y217913D01*
X157413Y217913D02*
Y263189D01*
X159776D01*
Y270079D01*
Y211024D02*
Y217913D01*
X187268D02*
Y263189D01*
X164827Y211024D02*
Y270079D01*
Y211024D02*
X187268D01*
X164827Y270079D02*
X187268D01*
X184906Y217913D02*
X187268D01*
X184906Y217913D02*
X184906Y217913D01*
X184906Y217913D02*
Y263189D01*
X187268D01*
Y270079D01*
Y211024D02*
Y217913D01*
X214760D02*
Y263189D01*
X192319Y211024D02*
Y270079D01*
Y211024D02*
X214760D01*
X192319Y270079D02*
X214760D01*
X212398Y217913D02*
X214760D01*
X212398Y217913D02*
X212398Y217913D01*
X212398Y217913D02*
Y263189D01*
X214760D01*
Y270079D01*
Y211024D02*
Y217913D01*
X242059Y217913D02*
Y263189D01*
X219618Y211024D02*
Y270079D01*
Y211024D02*
X242059D01*
X219618Y270079D02*
X242059D01*
X239697Y217913D02*
X242059D01*
X239697Y217913D02*
X239697Y217913D01*
X239697Y217913D02*
Y263189D01*
X242059D01*
Y270079D01*
Y211024D02*
Y217913D01*
X341693Y446181D02*
Y456181D01*
Y446181D02*
X371693D01*
Y456181D01*
X341693D02*
X371693D01*
X269551Y217913D02*
Y263189D01*
X247110Y211024D02*
Y270079D01*
Y211024D02*
X269551D01*
X247110Y270079D02*
X269551D01*
X267189Y217913D02*
X269551D01*
X267189Y217913D02*
X267189Y217913D01*
X267189Y217913D02*
Y263189D01*
X269551D01*
Y270079D01*
Y211024D02*
Y217913D01*
X297043D02*
Y263189D01*
X274602Y211024D02*
Y270079D01*
Y211024D02*
X297043D01*
X274602Y270079D02*
X297043D01*
X294681Y217913D02*
X297043D01*
X294681Y217913D02*
X294681Y217913D01*
X294681Y217913D02*
Y263189D01*
X297043D01*
Y270079D01*
Y211024D02*
Y217913D01*
X317244Y459173D02*
Y469173D01*
Y459173D02*
X377244D01*
Y469173D01*
X317244D02*
X377244D01*
X416043Y329134D02*
X417323D01*
X426772D02*
X428051D01*
X408366Y336614D02*
Y342815D01*
X435728Y342815D01*
Y336614D02*
Y342815D01*
X408366Y315453D02*
Y321654D01*
Y315453D02*
X435728D01*
Y321654D01*
X156299Y428740D02*
X235039D01*
X156299Y365748D02*
X235039D01*
X207480Y402756D02*
Y414567D01*
Y402756D02*
X219291D01*
Y414567D01*
X207480D02*
X219291D01*
X370276Y349311D02*
Y353839D01*
X377953Y349311D02*
Y353839D01*
X370276Y349311D02*
X372933D01*
X375295D02*
X377953D01*
X370276Y353839D02*
X372933D01*
X375295D02*
X377953D01*
X347343Y228051D02*
Y232579D01*
X355020Y228051D02*
Y232579D01*
X347343Y228051D02*
X350000D01*
X352362D02*
X355020D01*
X347343Y232579D02*
X350000D01*
X352362D02*
X355020D01*
X317027Y226870D02*
X321555D01*
X317027Y234547D02*
X321555D01*
Y226870D02*
Y229528D01*
Y231890D02*
Y234547D01*
X317027Y226870D02*
Y229528D01*
Y231890D02*
Y234547D01*
X312697Y226870D02*
X317224D01*
X312697Y234547D02*
X317224D01*
Y226870D02*
Y229528D01*
Y231890D02*
Y234547D01*
X312697Y226870D02*
Y229528D01*
Y231890D02*
Y234547D01*
X312697Y226673D02*
X317225D01*
X312697Y218996D02*
X317225D01*
X312697Y224016D02*
Y226673D01*
Y218996D02*
Y221653D01*
X317225Y224016D02*
Y226673D01*
Y218996D02*
Y221653D01*
X349311Y246752D02*
X353839D01*
X349311Y239075D02*
X353839D01*
X349311Y244094D02*
Y246752D01*
Y239075D02*
Y241732D01*
X353839Y244094D02*
Y246752D01*
Y239075D02*
Y241732D01*
X329823Y218208D02*
Y222736D01*
X322146Y218208D02*
Y222736D01*
X327165D02*
X329823D01*
X322146D02*
X324803D01*
X327165Y218208D02*
X329823D01*
X322146D02*
X324803D01*
X313484Y378445D02*
Y382973D01*
X321162Y378445D02*
Y382973D01*
X313484Y378445D02*
X316142D01*
X318504D02*
X321162D01*
X313484Y382973D02*
X316142D01*
X318504D02*
X321162D01*
X462303Y335334D02*
X466831D01*
X462303Y327657D02*
X466831D01*
X462303Y332677D02*
Y335334D01*
Y327657D02*
Y330315D01*
X466831Y332677D02*
Y335334D01*
Y327657D02*
Y330315D01*
X457972Y327658D02*
X462500D01*
X457972Y335335D02*
X462500D01*
Y327658D02*
Y330315D01*
Y332677D02*
Y335335D01*
X457972Y327658D02*
Y330315D01*
Y332677D02*
Y335335D01*
X331299Y367913D02*
Y417126D01*
Y367913D02*
X380512D01*
Y417126D01*
X331299D02*
X380512D01*
X387008Y316535D02*
X390354Y316535D01*
Y311811D02*
Y316535D01*
X387008Y311811D02*
X390354Y311811D01*
X380512Y311811D02*
X383858Y311811D01*
X380512Y311811D02*
Y316535D01*
X383858Y316535D01*
X391043Y311910D02*
Y316437D01*
X398721Y311910D02*
Y316437D01*
X391043Y311910D02*
X393701D01*
X396063D02*
X398721D01*
X391043Y316437D02*
X393701D01*
X396063D02*
X398721D01*
X266535Y385433D02*
X269882Y385433D01*
Y380709D02*
Y385433D01*
X266535Y380709D02*
X269882Y380709D01*
X260039Y380709D02*
X263386Y380709D01*
X260039Y380709D02*
Y385433D01*
X263386Y385433D01*
X266535Y390158D02*
X269882Y390158D01*
Y385433D02*
Y390158D01*
X266535Y385433D02*
X269882Y385433D01*
X260039Y385433D02*
X263386Y385433D01*
X260039Y385433D02*
Y390158D01*
X263386Y390158D01*
X266535Y394882D02*
X269882Y394882D01*
Y390158D02*
Y394882D01*
X266535Y390158D02*
X269882Y390158D01*
X260039Y390158D02*
X263386Y390158D01*
X260039Y390158D02*
Y394882D01*
X263386Y394882D01*
X266535Y399606D02*
X269882Y399606D01*
Y394882D02*
Y399606D01*
X266535Y394882D02*
X269882Y394882D01*
X260039Y394882D02*
X263386Y394882D01*
X260039Y394882D02*
Y399606D01*
X263386Y399606D01*
X373661Y456181D02*
X443661D01*
Y446181D02*
Y456181D01*
X373661Y446181D02*
X443661D01*
X373661D02*
Y456181D01*
X271358Y380807D02*
Y385335D01*
X279036Y380807D02*
Y385335D01*
X271358Y380807D02*
X274016D01*
X276378D02*
X279036D01*
X271358Y385335D02*
X274016D01*
X276378D02*
X279036D01*
X271358Y385532D02*
Y390059D01*
X279036Y385532D02*
Y390059D01*
X271358Y385532D02*
X274016D01*
X276378D02*
X279036D01*
X271358Y390059D02*
X274016D01*
X276378D02*
X279036D01*
X271358Y390256D02*
Y394784D01*
X279036Y390256D02*
Y394784D01*
X271358Y390256D02*
X274016D01*
X276378D02*
X279036D01*
X271358Y394784D02*
X274016D01*
X276378D02*
X279036D01*
X271358Y394981D02*
Y399508D01*
X279036Y394981D02*
Y399508D01*
X271358Y394981D02*
X274016D01*
X276378D02*
X279036D01*
X271358Y399508D02*
X274016D01*
X276378D02*
X279036D01*
X380748Y344213D02*
X450748D01*
X380748D02*
Y354213D01*
X450748D01*
Y344213D02*
Y354213D01*
X295768Y417028D02*
Y421555D01*
X303445Y417028D02*
Y421555D01*
X295768Y417028D02*
X298425D01*
X300788D02*
X303445D01*
X295768Y421555D02*
X298425D01*
X300788D02*
X303445D01*
X276673Y417027D02*
Y421555D01*
X268996Y417027D02*
Y421555D01*
X274016D02*
X276673D01*
X268996D02*
X271653D01*
X274016Y417027D02*
X276673D01*
X268996D02*
X271653D01*
X115748Y333465D02*
X119095Y333465D01*
Y328740D02*
Y333465D01*
X115748Y328740D02*
X119095Y328740D01*
X109252Y333465D02*
X112598D01*
X109252Y328740D02*
Y333465D01*
Y328740D02*
X112598D01*
X115748Y305512D02*
X119095Y305512D01*
Y300787D02*
Y305512D01*
X115748Y300787D02*
X119095Y300787D01*
X109252Y305512D02*
X112598D01*
X109252Y300787D02*
Y305512D01*
Y300787D02*
X112598D01*
X571260Y425197D02*
X571260Y421850D01*
X566535D02*
X571260D01*
X566535D02*
X566536Y425197D01*
X571260Y428346D02*
Y431693D01*
X566535D02*
X571260D01*
X566535Y428346D02*
Y431693D01*
X571260Y397638D02*
X571260Y394291D01*
X566535D02*
X571260D01*
X566535D02*
X566536Y397638D01*
X571260Y400787D02*
Y404134D01*
X566535D02*
X571260D01*
X566535Y400787D02*
Y404134D01*
D12*
X335236Y373030D02*
G03*
X335256Y373030I10J-1181D01*
G01*
D13*
X328805Y362220D02*
G03*
X328816Y362220I5J-591D01*
G01*
X421083Y404563D02*
G03*
X421083Y404563I-591J0D01*
G01*
X424063Y412765D02*
G03*
X424063Y412765I-591J0D01*
G01*
D14*
X330700Y238555D02*
G03*
X330700Y238555I-218J0D01*
G01*
X333077Y227150D02*
X336427D01*
X338979D02*
X338986D01*
X341538D02*
X344888D01*
X341538Y238961D02*
X344888D01*
X338979D02*
X338986D01*
X333077D02*
X336427D01*
X333077Y227150D02*
Y227744D01*
Y238367D02*
Y238961D01*
X344888Y227150D02*
Y227961D01*
Y238151D02*
Y238961D01*
D15*
X357583Y248322D02*
Y262550D01*
X311708Y248322D02*
X357583D01*
X311708D02*
Y262550D01*
X357583Y276033D02*
Y290261D01*
X311708D02*
X357583D01*
X311708Y276033D02*
Y290261D01*
X423587Y390113D02*
Y407525D01*
X402397Y390113D02*
X423587D01*
X402397D02*
Y407525D01*
X423587D01*
X363498Y341422D02*
Y354640D01*
X347525Y341422D02*
X363498D01*
X347525D02*
Y354640D01*
X363498D01*
X364398Y349015D02*
Y355540D01*
X357087D02*
X364398D01*
D16*
X384744Y314173D02*
X385925Y312992D01*
X384744Y314173D02*
X385925Y315354D01*
Y312992D02*
Y315354D01*
X385630Y313386D02*
Y314764D01*
X385039Y314173D02*
X385630Y314764D01*
X385335Y313681D02*
Y314173D01*
X264272Y383071D02*
X265453Y381890D01*
X264272Y383071D02*
X265453Y384252D01*
Y381890D02*
Y384252D01*
X265158Y382283D02*
Y383661D01*
X264567Y383071D02*
X265158Y383661D01*
X264862Y382579D02*
Y383071D01*
X264272Y387795D02*
X265453Y386614D01*
X264272Y387795D02*
X265453Y388976D01*
Y386614D02*
Y388976D01*
X265158Y387008D02*
Y388386D01*
X264567Y387795D02*
X265158Y388386D01*
X264862Y387303D02*
Y387795D01*
X264272Y392520D02*
X265453Y391339D01*
X264272Y392520D02*
X265453Y393701D01*
Y391339D02*
Y393701D01*
X265158Y391732D02*
Y393110D01*
X264567Y392520D02*
X265158Y393110D01*
X264862Y392028D02*
Y392520D01*
X264272Y397244D02*
X265453Y396063D01*
X264272Y397244D02*
X265453Y398425D01*
Y396063D02*
Y398425D01*
X265158Y396457D02*
Y397835D01*
X264567Y397244D02*
X265158Y397835D01*
X264862Y396752D02*
Y397244D01*
D17*
X195473Y378543D02*
D03*
M02*
