M48
;Layer_Color=9474304
;FILE_FORMAT=2:5
INCH,LZ
;TYPE=PLATED
T1F00S00C0.01181
T2F00S00C0.03543
T3F00S00C0.06693
T4F00S00C0.10236
%
T01
X0625984Y0165354
X0637795
X0649606
X0661417
X0673228
X0685039
X069685
X0690945Y0177165
X0679134
X0667323
X0655512
X0643701
X063189
X0625984Y0188976
X0637795
X0649606
X0661417
X0673228
X0685039
X069685
X0690945Y0200787
X0679134
X0667323
X0655512
X0643701
X063189
X0629134Y0215223
Y0217192
Y021916
X0625984Y0212598
X0637795
X0649606
X0656693Y0216142
Y021811
Y0220079
X0661417Y0212598
X0673228
X0685039
X069685
X0690945Y0224409
X0679134
X0667323
X0673228Y023622
X0685039
X069685
X0690945Y0248031
X0679134
X0667323
X0653544Y0251969
X064567
X0637796
X0637795Y0259842
X0625984
X0625985Y0244095
X0629922Y0236221
X0637796
X064567
X0653544
X0649607Y0228347
X0641733
X0625985
X0641733Y0244095
X0649607
X0649606Y0259842
X0643701Y0271654
X0655512
X0667323
X0679134
X0690945
X0702756
X069685Y0259842
X0685039
X0673228
Y0283465
X0685039
X069685
X0690945Y0295275
X0679134
X0667323
X0655512
X0637795Y0283465
X0625984
X0637795Y0307086
X0673228
X0685039
X069685
X0702756Y0295275
Y0248031
Y0224409
Y0200787
Y0177165
X0620079
X0614173Y0165354
Y0188976
X0608267Y0200787
X0596456
X0584646
X0572834
X0561023
X0549212
X0537401
X052559
X0513779
X0501968
X0490157
X0478346
X0480315Y0220473
X0472441
X0476378Y0228347
X0484252
X0492126
X05
X0507874
X0515748
X0523622
X0531496
X053937
X0547244
X0555118
X0562992
X0570866
X0573622Y0220079
Y021811
Y0216142
X057874Y0212598
X0566929
X0555118
X0551181Y0220473
X0543307
X0535433
X0527559
X0519685
X0511811
X0503937
X0496063
X0488189
Y0236221
X0480315
X0472441
X0476378Y0244095
X0484252
X0492126
X05
X0507874
X0515748
X0523622
X0531496
X053937
X0547244
X0555118
X0562992
X0570866
X0566929Y0236221
X0559055
X0551181
X0543307
X0535433
X0527559
X0519685
X0511811
X0503937
X0496063
Y0251969
X0488189
X0480315
X0472441
X0476378Y0259843
X0484252
X0492126
X05
X0507874
X0515748
X0511811Y0251969
X0503937
Y0267717
X0496063
Y0283465
X0503937
X0511811
X0519685
X0531496Y0283465
X0543307
X0555118
X0561023Y0271654
X0572834
X0584646
X0590551Y0259842
X0590552Y0251969
X0582678
X0586615Y0244095
X0594488
X0590552Y0236221
X0582678
X0574803
X0586615Y0228347
X0594488
X0598425Y0236221
X0606299
X0614174
X0622048
X0618111Y0228347
X0610237
Y0244095
X0618111
X0614174Y0251969
X0622048
X0614173Y0259842
X0620079Y0271654
X0598425Y0251969
X0566929
X0559055
X0551181
X0543307
X0535433
X0527559
X0519685
Y0267717
X0511811
X0507874Y0275591
X0515748
X0537401Y0271654
X0531496Y0259842
X0543307
X0555118
X0566929
X0590551Y0283465
X0584646Y0295275
X0555118Y0307086
X0492126Y0307087
X0484252Y0307086
X0472441
X0478346Y0295275
X0472441Y0283465
X0484252
X0492126Y0291339
X0496063Y0299213
X0590551Y0212598
X0602362
X0600787Y0215879
Y0217848
Y0219816
X0614173Y0212598
X0620079Y0200787
X0466535
X0454724
X0442913
X0431102
X0419291
X040748
X0395669
X0383858
X0372047
X0360236
X0348425
X034685Y0210236
Y0212598
Y0214961
Y0217323
Y0219685
Y0222047
X0344094
Y0219685
Y0217323
Y0214961
Y0212598
Y0210236
X0330709Y0212598
X0318898
X0314961Y0225984
X0333465Y022559
X0336614Y0224409
X0337008Y0229528
X0338976
X0340945Y0229528
Y023189
X0338976Y023189
X0337008
Y0234252
X0338976
X0340945Y0234252
Y0236614
X0338976Y0236614
X0337008
X0337008Y024685
X033937
X0341732
Y0249606
X033937
X0337008
X0331496Y0243307
X0330709Y0259842
X034252
X0353543Y0257874
Y0255512
Y025315
Y0250787
Y0248425
Y0246063
X0356299
Y0248425
Y0250787
Y025315
Y0255512
Y0257874
X0348425Y0248031
Y0224409
X0336614Y0200787
X0324803
X0312992
X0324803Y0271654
X0336614
X0330709Y0283465
X0318898
X0312992Y0295275
X0324803
X0336614
X0348425
X0360236
X0372047
X0383858
X0395669
X040748
X0413386Y0291339
X042126
X0417323Y0283465
X0425197
X0433071
X0440945
X0437008Y0275591
X0429134
X0425197Y0267717
X0417323
X0413386Y0259843
X042126
X0429134
X0437008
X0444882
X0452756
X046063
X0468504
X0464567Y0251969
X0456693
X0448819
X0440945
X0433071
X0425197
X0417323
X0413386Y0244095
X042126
X0429134
X0437008
X0444882
X0452756
X046063
X0468504
X0464567Y0236221
X0456693
X0448819
X0440945
X0433071
X0425197
X0417323
X0413386Y0228347
X0405512
X0397638
X0389764
X0389764Y023622
X0401575
X0401575Y0220473
X0393701
X0385827
X0409449
X0417323
X0425197
X0433071
X0440945
X0448819
X0456693
X0464567
X046063Y0228347
X0452756
X0444882
X0437008
X0429134
X042126
X040748Y0248031
X0395669
X0389764Y0259842
X0401575
X0395669Y0271654
X040748
X0413386Y0275591
X0401575Y0283465
X0389764
X0377953
X0366142
X0354331
X034252
Y0307086
X0330709
X0318898
X0354331
X0366142
X0377953
X0389764
X0401575
X0413386Y0307087
X042126
X0417323Y0299213
X0433071Y0267717
X0440945
X0444882Y0275591
X0454724Y0271654
X0466535
X046063Y0283465
X0468504Y0228347
X0307086Y023622
X0295275
X0296063Y0248031
Y02521
X0293307Y0251969
X0292126Y025
Y0254068
Y0258137
Y0262205
Y0266273
Y0270341
Y0274409
X0296063Y0272441
Y0268373
Y0264304
Y0260236
Y0256168
X0283465Y0255906
X0279528
X0275591
X0271654
X0267717
X026378
X0265748Y0251969
X0269685
X0273622
X0277559
X0281496
X0279528Y0248032
X0275591
X0271654
X0267717
X026378
X0255906
X0251969
X0248032
X0244095
X0240158
X0242126Y0251969
X0238189
X0236221Y0255906
X0232284
X0240158
X0244095
X0248032
X0251969
X0255906
X0253937Y0251969
X025
X0246063
Y0259843
X0242126
X0238189
X0236221Y026378
X0240158
X0244095
X0248032
X0251969
X0255906
X0257874Y0267717
X0253937
X025
X0246063
X0242126
X0238189
X0234252
X0230315
X0236221Y0271654
X0240158
X0244095
X0248032
X0251969
X0255906
X026378
X0267717
X0271654
X0275591
X0279528
X0283465
X0285433Y0267717
X0281496
X0277559
X0273622
X0269685
X0265748
X0261811
X026378Y026378
X0267717
X0271654
X0275591
X0279528
X0283465
X0281496Y0259843
X0277559
X0273622
X0269685
X0265748
X0253937
X025
X0248031Y0283465
X0242126Y0295275
X0253937
X0265748
X0277559
X028937
X0301181
X0295275Y0283465
X0283465
X0271654
Y0307086
X0259842
X0283465
X0295275
X0307086
Y0283465
X028937Y0267717
X0283465Y0248032
X0277559Y0224409
X0265748
X0253937
X0242126
X023622Y0212598
X0224409
X0212598
X0200787
X0188976
X0177165
X0165354
X0159449Y0200787
X017126
X0183071
X0194882
X0206693
X0218504
X0230315
X0242126
X0253937
X0265748
X0277559
X028937
X0301181
X0295275Y0212598
X0283465
X0271654
X0259842
X0248031
X0218504Y0224409
X0219685Y0239763
X0216929Y0239764
X0200787Y0248032
X0196851
X0192913
X0188977
X0185039
X0187008Y0251969
X0183071
X0181103Y0255906
X0177165
X0173228
X0169291
X0165354
X0161417
X015748
X0159449Y0251969
X0163386
X0167323
X017126
X0169291Y0248032
X0165354
X0161417
X015748
X0159449Y0259843
X0163386
X0167323
X017126
X0169291Y026378
X0165354
X0161417
X015748
X0159449Y0267717
X0163386
X0167323
X017126
X0175197
X0179134
X0183071
X0187008
X0190945
X0194882
X0198819
X0202756
X0206693
X0200787Y026378
X0196851
X0192913
X0188977
X0185039
X0181103
X0183071Y0259843
X0187008
X0190945
X0194882
X0198819
X0196851Y0255906
X0192913
X0188977
X0185039
X0190945Y0251969
X0194882
X0198819
X0200787Y0255906
X0204725
X0200787Y0271654
X0196851
X0192913
X0188977
X0185039
X0181103
X0173228
X0169291
X0165354
X0161417
X015748
X0165354Y0283465
X0159449Y0295275
X017126
X0183071
X0194882
X0206693
X0218504
X0200787Y0283465
X0188976
X0173228Y026378
Y0248032
X017126Y0224409
X0159449
X0183071
X0194882
X0177165Y0188976
X0165354
X0159449Y0177165
X017126
X0165354Y0165354
X0177165
Y0307086
X0165354
X0301181Y0224409
X0307086Y0212598
X0153543
X0141732
X0129921
X011811
X0106299
X0094488
X0082677
X0088583Y0200787
X0100394
X0112205
X0124016
X0135827
X0147638
X0141732Y0188976
X0129921
X011811
X0106299
X0094488
X0082677
X0088583Y0177165
X0100394
X0112205
X0124016
X0135827
X0147638
X0141732Y0165354
X0129921
X011811
X0106299
X0094488
X0082677
X0088583Y0224409
X0100394
X0112205
X0124016
X0135827
X0129921Y023622
X011811
X0106299
X0094488
X0082677
X0088583Y0248031
X0100394
X0112205
X0124016
X0135827
X0129921Y0259842
X011811
X0106299
X0094488
X0082677
X0088583Y0271654
X0100394
X0112205
X0124016
X0135827
X0129921Y0283465
X011811
X0106299
X0094488
X0082677
X0088583Y0295275
X0100394
X0112205
X0124016
X0135827
X0147638
X0141732Y0283465
X0153543
X0153543Y0271654
X0155512Y0267717
X0151575
X0153543Y026378
X0155512Y0259843
X0153543Y0255906
X0149606
X0155512Y0251969
X0141732Y0259842
Y023622
X0153543Y0188976
Y0165354
X0106299Y0307086
X0094488
X0082677
X0088583Y0318898
X0100394
X0112205
X0124016
X0135827
Y034252
X0120866Y0339764
X0112205Y034252
X0100394
X0088583
X0082677Y0330709
X0094488
X0106299
Y0354331
X0094488
X0082677
X0088583Y0366142
X0100394
X0112205
X0124016
X0135827
X0129921Y0354331
X011811
Y0377953
X0106299
X0094488
X0082677
X0088583Y0389764
X0100394
X0112205
X0124016
X0135827
X0147638
X0141732Y0377953
X0129921
Y0401575
X011811
X0106299
Y0425197
X011811
X0129921
X0141732
X0135827Y0437008
X0124016
X0112205
X0100394
X0088583
X0082677Y0448819
X0094488
X0106299
X011811
X0129921
X0141732
X0153543
X0147638Y0437008
Y046063
X0135827
X0124016
X0112205
X0100394
X0088583
X0141732Y0401575
Y0354331
X0159449Y034252
Y0318898
X0183071
X0194882
X0206693
X0218504
X0230315
X0242126
X023622Y0330709
X0248031
X0242126Y0366142
X0253937
X0259842Y0377953
X0271654
Y0401575
X0291339Y0394094
X0296063Y0392126
X0300394Y0390158
X0304724Y0388189
X0308661Y0385827
X0301181Y0366142
X028937
X0295275Y0354331
X0277559Y034252
X028937Y0318898
X0301181
X0307086Y0330709
X0206693Y034252
X0183071
Y0366142
X017126
X0165354Y0373228
Y0381102
Y0389764
X017126Y0389764
X0183071
X0194882
X0206693
X0212598Y0377953
X0224409
X0226378Y0393307
Y0401181
Y0409055
X0212598Y0401575
X0194882Y0413386
X0183071
X017126
X0165354Y0425197
X0177165
X017126Y0437008
X0159449
X0165354Y0448819
X0159449Y046063
X017126
X0218504
X0230315
X0242126
X0253937
X0248031Y0448819
X023622
X0224409
X0218504Y0437008
X0230315
X0242126
X0253937
X0265748
X0277559
X0281693Y0426181
X0290551Y0426378
X0301181Y0437008
X0295275Y0448819
X0307086
X0301181Y046063
X0271654Y0448819
X0259842
X0235039Y0424803
X0253937Y0389764
X0218504Y0366142
X0206693
X0194882
X0165354Y0397638
X0312598Y0383071
X0315748Y037874
Y037126
X0312992Y034252
X0324803
X0336614
X0336614Y0349213
X0330709Y0354331
X034685Y0352362
X0347244Y035
X0355906Y0344488
X0364173
X0363779Y034685
X0372441Y0344882
X0372047Y034252
X0383858
X0395669
X0403543Y0335039
Y0333071
Y0331102
Y0329134
Y0327165
Y0325197
Y0323228
X040748Y0318898
X0395669
X0383858
X0372047
X0366142Y0330709
X0354331
X034252
X0330709
X0318898
X0312992Y0318898
X0377953Y0330709
X0389764
X0419291Y0318898
X0431102
Y034252
X043937Y0341732
X0441732
X0444095
X0446457
Y0338976
X0444095
X0441732
X043937
X0443307Y0335039
X0443504Y0331496
X0456299Y0335039
X0454724Y034252
X0466535
X0465748Y0337795
X0466929Y0329823
X0466535Y0318898
X0458661Y0318898
Y032126
X0455905
Y0318898
Y0316535
Y0314173
X0458661
Y0316535
X0454724Y0366142
X0442913
X0431102
X0419291
Y034252
X0402755Y0374803
X0400787Y0377165
X0398425Y0379528
X0396457Y038189
X0394488Y0384252
X0405512Y0387008
X0420472Y0390158
X0431102Y0389764
Y0413386
X0434646Y041063
X0442913Y0413386
X0454724
X0466535
X046063Y0401575
X0466535Y0389764
X0437008Y0425197
X0425197
X0420492Y0422421
X0419291Y0437008
X0413386Y0448819
X040748Y046063
X0395669
X0383858
X0385039Y0434252
X0386221Y0431496
Y0427953
X0389764Y0425197
X0391339Y0409449
X0397244Y0413779
X0369685Y0406693
X0371654Y0400787
X0372441Y0396063
X0372441Y0377165
X0370866Y037559
X0368898Y0377165
Y0374016
X0367323Y037559
X0370472Y037874
X0367323Y0358661
X0357873Y0366535
X0395669Y0368504
X0365749Y0418504
X0368504Y0434252
X0372441
X0376378
X0380709
X0354724
X0356693Y0436221
X0358661Y0438189
X0348425Y0437008
X0348819Y0428346
X0350787Y0430314
X0352756Y0432283
X0341732Y0426377
X0340158Y0418504
X0336221Y0414173
X0334252Y0433465
X0336614Y0437008
X0324803
X0312992
X0318898Y0448819
X0312992Y046063
X0336614
X0348425
X0419291
X0431102
X0442913
X0454724
X0466535
X046063Y0448819
X0448819
X0442913Y0437008
X0472441Y0448819
X0484252
X0496063
X0507874
X0519685
X0531496
X0543307
X0555118
X0566929
X0561023Y0437008
X0549212
X0537401
Y046063
X052559
X0513779
X0501968
X0490157
X0478346
Y0413386
X0490157
X0501968
X0507874Y0401575
X0519685
X0531496
X052559Y0389764
X0537401
X0549212
X0561023
X0572834
X0584646
X0596456
X0608267
X0620079
X0614173Y0377953
X0608267Y0366142
X0620079
X0620472Y0350787
X0608268Y0352362
X0602362Y0354331
X059252Y0350394
X0580709Y0354331
X0566929Y0354331
X0566142Y0350394
X0558661Y0344882
Y0341732
Y0338976
Y0336221
X0555118Y0330709
X0543307
X0531496
X0519685
X0507874
X0496063
X0484252
X0472441
X0478346Y0318898
X052559
X0537401
X0549212
X0549213Y0350394
X0570866Y0336221
X057874Y0330709
X0584646Y0318898
X0608267
X0602362Y0330709
X0598425Y0338976
X0584646Y0366142
X057874Y0401575
X0572835Y0401968
X0572834Y0413386
X0561023
X0549212
X052559
X0501968Y0389764
X0490157
X0478346
X0590551Y0401575
X0602362
X0614173
X0608267Y0413386
X0596456
X0584646
X057874Y0425197
X0572835Y0429528
X0572834Y0437008
X0590551Y0425197
X0602362
X0614173
X0608267Y0437008
X0620079
X0614173Y0448819
X0620079Y046063
Y0413386
X0561023Y046063
X0549212
X063189
X0643701
X0655512
X0667323
X0679134
X0690945
X0702756
X069685Y0448819
X0685039
X0673228
X0661417
X0649606
X0637795
X0625984
X063189Y0437008
X0643701
X0655512
X0667323
X0679134
X0690945
X0702756
X069685Y0425197
X0685039
X0673228
X0661417
X0649606
X0637795
X0625984
X063189Y0413386
X0643701
X0655512
X0667323
X0679134
X0690945
X0702756
X069685Y0401575
X0685039
X0673228
X0661417
X0649606
X0637795
X0625984
Y0377953
X0637795
X0649606
X0661417
X0673228
X0685039
X069685
X0690945Y0366142
X0679134
X0667323
X0655512
X0661417Y0354331
X0673228
X0685039
X069685
X0690945Y034252
X0679134
X0667323
X0655512
X065315Y0344882
X0661417Y0330709
X0673228
X0685039
X069685
X0690945Y0318898
X0679134
X0667323
X0655512
X063189
X0637795Y0330709
X063189Y034252
X0625984Y0341732
X0625984Y0354331
X0637795
X063189Y0366142
X0643701Y0389764
X0655512
X0667323
X0679134
X0690945
X0702756
Y0366142
Y034252
Y0318898
T02
X0632415Y0243701
Y0253543
Y0263386
Y0273228
Y0283071
Y0292913
Y0302756
X0659842
Y0292913
Y0283071
Y0273228
Y0263386
Y0253543
Y0243701
X0604987
Y0253543
Y0263386
Y0273228
Y0283071
Y0292913
Y0302756
X0577559
Y0292913
Y0283071
Y0273228
Y0263386
Y0253543
Y0243701
X0287595Y0240551
Y0230709
Y0220866
X0260102
Y0230709
Y0240551
Y0250394
Y0260236
X023261
Y0250394
Y0240551
Y0230709
Y0220866
X0205311Y0220866
Y0230709
Y0240551
Y0250394
Y0260236
X0177819
Y0250394
Y0240551
Y0230709
Y0220866
X0181319Y030335
X0191161
X0201004
X0210846
X0220689
X0171476
X0161634
X0287595Y0260236
Y0250394
X0150327Y0250394
Y0240551
Y0230709
Y0220866
Y0260236
X0151791Y030335
X0141949
X0132106
Y0330842
X0141949
X0151791
X0161634
X0171476
X0181319
X0191161
X0201004
X0210846
X0220689
X0385748Y0349213
X0395748
X0405748
X0415748
X0425748
X0435748
X0445748
X0464724Y0397504
Y0424996
X0438661Y0451181
X0428661
X0418661
X0408661
X0398661
X0388661
X0378661
X0366693
X0356693
X0346693
X0342244Y0464173
X0352244
X0362244
X0372244
X0332244
X0322244
X0474567Y0424996
X048441
X0494252
X0504095
X0513937
X0523779
X0533622
X0543465
X0553307
Y0397504
X0543465
X0533622
X0523779
X0513937
X0504095
X0494252
X048441
X0474567
T03
X0474606Y0274803
X0497835
X0550984
X0421457
T04
X0510236Y0298425
X0538583
X0462205
X0433858
M30
