G04*
G04 #@! TF.GenerationSoftware,Altium Limited,Altium Designer,20.0.2 (26)*
G04*
G04 Layer_Color=255*
%FSLAX25Y25*%
%MOIN*%
G70*
G01*
G75*
%ADD18R,0.02362X0.02559*%
%ADD19R,0.04724X0.04488*%
%ADD20R,0.02559X0.02362*%
%ADD21R,0.04488X0.04724*%
%ADD22R,0.03150X0.03543*%
%ADD23R,0.19685X0.03937*%
%ADD24R,0.21654X0.05906*%
%ADD25R,0.13480X0.12284*%
%ADD26R,0.09843X0.13780*%
%ADD27O,0.11811X0.04724*%
%ADD28O,0.11811X0.03937*%
%ADD29R,0.18900X0.18500*%
%ADD30R,0.02950X0.03937*%
%ADD31R,0.02756X0.02953*%
%ADD32R,0.18500X0.18900*%
%ADD33R,0.03937X0.02950*%
%ADD34R,0.02953X0.02756*%
%ADD35R,0.11024X0.05906*%
%ADD36O,0.06299X0.01181*%
%ADD37O,0.01181X0.06299*%
%ADD38R,0.03150X0.01181*%
%ADD39R,0.05984X0.09449*%
%ADD40R,0.01181X0.03150*%
%ADD41O,0.02398X0.08679*%
%ADD42R,0.03937X0.02165*%
%ADD43R,0.05512X0.04724*%
%ADD44R,0.05906X0.11024*%
%ADD45R,0.03543X0.03150*%
%ADD93R,0.05906X0.05906*%
%ADD94C,0.05906*%
%ADD95R,0.05906X0.05906*%
%ADD96C,0.19685*%
%ADD97R,0.19685X0.19685*%
%ADD98C,0.11024*%
D18*
X352854Y235827D02*
D03*
X349508D02*
D03*
X240453Y432677D02*
D03*
X243799D02*
D03*
X318996Y368898D02*
D03*
X315650D02*
D03*
X393996Y416141D02*
D03*
X397342D02*
D03*
X375787Y347244D02*
D03*
X372441D02*
D03*
X392421Y370866D02*
D03*
X395767D02*
D03*
X384351Y464174D02*
D03*
X381004D02*
D03*
X393996Y411811D02*
D03*
X397342D02*
D03*
X324311Y232283D02*
D03*
X327657D02*
D03*
X375787Y351575D02*
D03*
X372441D02*
D03*
X352854Y230315D02*
D03*
X349508D02*
D03*
X324311Y220472D02*
D03*
X327657D02*
D03*
X318996Y380709D02*
D03*
X315650D02*
D03*
X396555Y314174D02*
D03*
X393209D02*
D03*
X276870Y383071D02*
D03*
X273524D02*
D03*
X276870Y387796D02*
D03*
X273524D02*
D03*
X276870Y392520D02*
D03*
X273524D02*
D03*
X276870Y397244D02*
D03*
X273524D02*
D03*
X301280Y419292D02*
D03*
X297933D02*
D03*
X271161Y419291D02*
D03*
X274508D02*
D03*
D19*
X577165Y218898D02*
D03*
Y226772D02*
D03*
X604331Y219029D02*
D03*
Y226903D02*
D03*
X632677Y218766D02*
D03*
Y226640D02*
D03*
X660236Y218898D02*
D03*
Y226772D02*
D03*
X149606Y282677D02*
D03*
Y274803D02*
D03*
X177362Y282677D02*
D03*
Y274803D02*
D03*
X205118Y282677D02*
D03*
Y274803D02*
D03*
X232677Y283071D02*
D03*
Y275197D02*
D03*
X259646Y283071D02*
D03*
Y275197D02*
D03*
X287402Y283071D02*
D03*
Y275197D02*
D03*
X359449Y226772D02*
D03*
Y234646D02*
D03*
D20*
X331890Y430216D02*
D03*
Y433563D02*
D03*
X339370Y352461D02*
D03*
Y349114D02*
D03*
X366929Y353051D02*
D03*
Y356398D02*
D03*
X336221Y430216D02*
D03*
Y433563D02*
D03*
X319292Y221161D02*
D03*
Y224508D02*
D03*
X366929Y344390D02*
D03*
Y347736D02*
D03*
X344095Y349114D02*
D03*
Y352461D02*
D03*
X324016Y224705D02*
D03*
Y228051D02*
D03*
X328347Y224705D02*
D03*
Y228051D02*
D03*
X425197Y387894D02*
D03*
Y384547D02*
D03*
X468898Y329823D02*
D03*
Y333169D02*
D03*
X319291Y232382D02*
D03*
Y229036D02*
D03*
X314960Y232382D02*
D03*
Y229036D02*
D03*
X314961Y221161D02*
D03*
Y224508D02*
D03*
X351575Y241240D02*
D03*
Y244586D02*
D03*
X464567Y329823D02*
D03*
Y333169D02*
D03*
X460236Y333170D02*
D03*
Y329823D02*
D03*
D21*
X351181Y212598D02*
D03*
X359055D02*
D03*
X351165Y219547D02*
D03*
X359039D02*
D03*
X520472Y314961D02*
D03*
X528346D02*
D03*
X316854Y244685D02*
D03*
X324728D02*
D03*
X316929Y238189D02*
D03*
X324803D02*
D03*
X451295Y313441D02*
D03*
X443421D02*
D03*
X451181Y320079D02*
D03*
X443307D02*
D03*
D22*
X337008Y243307D02*
D03*
X331496D02*
D03*
X347244D02*
D03*
X341732D02*
D03*
X465748Y337795D02*
D03*
X460236D02*
D03*
X444488Y325984D02*
D03*
X450000D02*
D03*
X394882Y333858D02*
D03*
X400394D02*
D03*
X394882Y329134D02*
D03*
X400394D02*
D03*
X394882Y324410D02*
D03*
X400394D02*
D03*
X388189Y314173D02*
D03*
X382677D02*
D03*
X267717Y383071D02*
D03*
X262205D02*
D03*
X267717Y387795D02*
D03*
X262205D02*
D03*
X267717Y392520D02*
D03*
X262205D02*
D03*
X267717Y397244D02*
D03*
X262205D02*
D03*
X111417Y331102D02*
D03*
X116929D02*
D03*
X111417Y303150D02*
D03*
X116929D02*
D03*
D23*
X91549Y416929D02*
D03*
D24*
X90565Y405905D02*
D03*
Y427953D02*
D03*
D25*
X315441Y269291D02*
D03*
X353850D02*
D03*
D26*
X433858Y329134D02*
D03*
X410236D02*
D03*
D27*
X156299Y401181D02*
D03*
Y409055D02*
D03*
Y424803D02*
D03*
Y393307D02*
D03*
Y385433D02*
D03*
Y377559D02*
D03*
Y369685D02*
D03*
X235039D02*
D03*
Y377559D02*
D03*
Y385433D02*
D03*
Y393307D02*
D03*
Y424803D02*
D03*
Y416929D02*
D03*
Y409055D02*
D03*
Y401181D02*
D03*
D28*
X156299Y416929D02*
D03*
D29*
X374410Y223854D02*
D03*
D30*
X381909Y213957D02*
D03*
X376909D02*
D03*
X371909D02*
D03*
X366910D02*
D03*
D31*
Y235649D02*
D03*
X371909D02*
D03*
X376909D02*
D03*
X381909D02*
D03*
D32*
X372209Y249606D02*
D03*
D33*
X382106Y257106D02*
D03*
Y252106D02*
D03*
Y247106D02*
D03*
Y242106D02*
D03*
D34*
X360414D02*
D03*
Y247106D02*
D03*
Y252106D02*
D03*
Y257106D02*
D03*
D35*
X358268Y301378D02*
D03*
X321260D02*
D03*
X358268Y319094D02*
D03*
X321260D02*
D03*
D36*
X326182Y368898D02*
D03*
Y370866D02*
D03*
Y372835D02*
D03*
Y374803D02*
D03*
Y376772D02*
D03*
Y378740D02*
D03*
Y380709D02*
D03*
Y382677D02*
D03*
Y384646D02*
D03*
Y386614D02*
D03*
Y388583D02*
D03*
Y390552D02*
D03*
Y392520D02*
D03*
Y394489D02*
D03*
Y396457D02*
D03*
Y398426D02*
D03*
Y400394D02*
D03*
Y402363D02*
D03*
Y404331D02*
D03*
Y406300D02*
D03*
Y408268D02*
D03*
Y410237D02*
D03*
Y412205D02*
D03*
Y414174D02*
D03*
Y416142D02*
D03*
X385630D02*
D03*
Y414174D02*
D03*
Y412205D02*
D03*
Y410237D02*
D03*
Y408268D02*
D03*
Y406300D02*
D03*
Y404331D02*
D03*
Y402363D02*
D03*
Y400394D02*
D03*
Y398426D02*
D03*
Y396457D02*
D03*
Y394489D02*
D03*
Y392520D02*
D03*
Y390552D02*
D03*
Y388583D02*
D03*
Y386614D02*
D03*
Y384646D02*
D03*
Y382677D02*
D03*
Y380709D02*
D03*
Y378740D02*
D03*
Y376772D02*
D03*
Y374803D02*
D03*
Y372835D02*
D03*
Y370866D02*
D03*
Y368898D02*
D03*
D37*
X332283Y422244D02*
D03*
X334251D02*
D03*
X336221D02*
D03*
X338189D02*
D03*
X340158D02*
D03*
X342126D02*
D03*
X344094D02*
D03*
X346062D02*
D03*
X348031D02*
D03*
X349999D02*
D03*
X351969D02*
D03*
X353938D02*
D03*
X355906D02*
D03*
X357874D02*
D03*
X359842D02*
D03*
X361811D02*
D03*
X363779D02*
D03*
X365749D02*
D03*
X367717D02*
D03*
X369686D02*
D03*
X371654D02*
D03*
X373622D02*
D03*
X375590D02*
D03*
X377559D02*
D03*
X379527D02*
D03*
Y362796D02*
D03*
X377559D02*
D03*
X375590D02*
D03*
X373622D02*
D03*
X371654D02*
D03*
X369686D02*
D03*
X367717D02*
D03*
X365749D02*
D03*
X363779D02*
D03*
X361811D02*
D03*
X359842D02*
D03*
X357874D02*
D03*
X355906D02*
D03*
X353938D02*
D03*
X351969D02*
D03*
X349999D02*
D03*
X348031D02*
D03*
X346062D02*
D03*
X344094D02*
D03*
X342126D02*
D03*
X340158D02*
D03*
X338189D02*
D03*
X336221D02*
D03*
X334251D02*
D03*
X332283D02*
D03*
D38*
X333470Y236993D02*
D03*
Y235024D02*
D03*
Y233056D02*
D03*
Y231087D02*
D03*
Y229119D02*
D03*
X344482Y229150D02*
D03*
Y231119D02*
D03*
Y233087D02*
D03*
Y237024D02*
D03*
Y235056D02*
D03*
D39*
X338976Y233071D02*
D03*
D40*
X340158Y238189D02*
D03*
X337795D02*
D03*
X340158Y227953D02*
D03*
X337795D02*
D03*
D41*
X420492Y412765D02*
D03*
X415492D02*
D03*
X410492D02*
D03*
X405492D02*
D03*
X420492Y384873D02*
D03*
X415492D02*
D03*
X410492D02*
D03*
X405492D02*
D03*
D42*
X454331Y331299D02*
D03*
Y335039D02*
D03*
Y338779D02*
D03*
X443307D02*
D03*
Y335039D02*
D03*
Y331299D02*
D03*
D43*
X359842Y351378D02*
D03*
X351181D02*
D03*
Y344685D02*
D03*
X359842D02*
D03*
D44*
X281693Y464173D02*
D03*
Y427165D02*
D03*
X263976Y464173D02*
D03*
Y427165D02*
D03*
X308465Y464173D02*
D03*
Y427165D02*
D03*
X290748Y464173D02*
D03*
Y427165D02*
D03*
D45*
X568898Y429528D02*
D03*
Y424016D02*
D03*
Y401968D02*
D03*
Y396457D02*
D03*
D93*
X577559Y302756D02*
D03*
X604987D02*
D03*
X632415D02*
D03*
X659842D02*
D03*
X150327Y220866D02*
D03*
X177819D02*
D03*
X205311D02*
D03*
X232610Y220866D02*
D03*
X260102D02*
D03*
X287595D02*
D03*
D94*
X577559Y292913D02*
D03*
Y273228D02*
D03*
Y283071D02*
D03*
Y253543D02*
D03*
Y263386D02*
D03*
Y243701D02*
D03*
X604987Y292913D02*
D03*
Y273228D02*
D03*
Y283071D02*
D03*
Y253543D02*
D03*
Y263386D02*
D03*
Y243701D02*
D03*
X132106Y330842D02*
D03*
X191161D02*
D03*
X201004D02*
D03*
X171476D02*
D03*
X181319D02*
D03*
X161634D02*
D03*
X151791D02*
D03*
X141949D02*
D03*
X210846D02*
D03*
X132106Y303350D02*
D03*
X191161D02*
D03*
X201004D02*
D03*
X171476D02*
D03*
X181319D02*
D03*
X161634D02*
D03*
X151791D02*
D03*
X141949D02*
D03*
X210846D02*
D03*
X632415Y292913D02*
D03*
Y273228D02*
D03*
Y283071D02*
D03*
Y253543D02*
D03*
Y263386D02*
D03*
Y243701D02*
D03*
X659842Y292913D02*
D03*
Y273228D02*
D03*
Y283071D02*
D03*
Y253543D02*
D03*
Y263386D02*
D03*
Y243701D02*
D03*
X553307Y424996D02*
D03*
X494252D02*
D03*
X484410D02*
D03*
X513937D02*
D03*
X504095D02*
D03*
X523779D02*
D03*
X533622D02*
D03*
X543465D02*
D03*
X474567D02*
D03*
X553307Y397504D02*
D03*
X494252D02*
D03*
X484410D02*
D03*
X513937D02*
D03*
X504095D02*
D03*
X523779D02*
D03*
X533622D02*
D03*
X543465D02*
D03*
X474567D02*
D03*
X150327Y230709D02*
D03*
Y250394D02*
D03*
Y240551D02*
D03*
Y260236D02*
D03*
X177819Y230709D02*
D03*
Y250394D02*
D03*
Y240551D02*
D03*
Y260236D02*
D03*
X205311Y230709D02*
D03*
Y250394D02*
D03*
Y240551D02*
D03*
Y260236D02*
D03*
X232610Y230709D02*
D03*
Y250394D02*
D03*
Y240551D02*
D03*
Y260236D02*
D03*
X356693Y451181D02*
D03*
X366693D02*
D03*
X260102Y230709D02*
D03*
Y250394D02*
D03*
Y240551D02*
D03*
Y260236D02*
D03*
X287595Y230709D02*
D03*
Y250394D02*
D03*
Y240551D02*
D03*
Y260236D02*
D03*
X372244Y464173D02*
D03*
X352244D02*
D03*
X342244D02*
D03*
X332244D02*
D03*
X362244D02*
D03*
X438661Y451181D02*
D03*
X418661D02*
D03*
X388661D02*
D03*
X398661D02*
D03*
X408661D02*
D03*
X428661D02*
D03*
X385748Y349213D02*
D03*
X405748D02*
D03*
X435748D02*
D03*
X425748D02*
D03*
X415748D02*
D03*
X395748D02*
D03*
D95*
X220689Y330842D02*
D03*
Y303350D02*
D03*
X464724Y424996D02*
D03*
Y397504D02*
D03*
X346693Y451181D02*
D03*
X322244Y464173D02*
D03*
X378661Y451181D02*
D03*
X445748Y349213D02*
D03*
D96*
X538583Y298425D02*
D03*
X462205D02*
D03*
D97*
X510236D02*
D03*
X433858D02*
D03*
D98*
X497835Y274803D02*
D03*
X550984D02*
D03*
X421457D02*
D03*
X474606D02*
D03*
M02*
