G04*
G04 #@! TF.GenerationSoftware,Altium Limited,Altium Designer,20.0.2 (26)*
G04*
G04 Layer_Physical_Order=2*
G04 Layer_Color=16711680*
%FSLAX25Y25*%
%MOIN*%
G70*
G01*
G75*
%ADD13C,0.01181*%
%ADD20R,0.02559X0.02362*%
%ADD24R,0.21654X0.05906*%
%ADD78C,0.01575*%
%ADD93R,0.05906X0.05906*%
%ADD94C,0.05906*%
%ADD95R,0.05906X0.05906*%
%ADD96C,0.19685*%
%ADD97R,0.19685X0.19685*%
%ADD98C,0.11024*%
%ADD99C,0.01772*%
%ADD100C,0.07874*%
%ADD101R,0.68504X0.31890*%
%ADD102R,0.63780X0.31890*%
%ADD103R,0.11024X0.45276*%
G36*
X707658Y158484D02*
X600743D01*
X600629Y158971D01*
X600961Y159134D01*
X603226Y160648D01*
X605273Y162443D01*
X607069Y164491D01*
X608582Y166755D01*
X609787Y169198D01*
X610662Y171777D01*
X611193Y174448D01*
X611371Y177165D01*
X611193Y179883D01*
X610662Y182554D01*
X609787Y185133D01*
X608582Y187575D01*
X607069Y189840D01*
X605273Y191887D01*
X603226Y193683D01*
X600961Y195196D01*
X598519Y196401D01*
X595940Y197276D01*
X593269Y197807D01*
X590551Y197985D01*
X587834Y197807D01*
X585162Y197276D01*
X582584Y196401D01*
X580141Y195196D01*
X577877Y193683D01*
X575829Y191887D01*
X574033Y189840D01*
X572520Y187575D01*
X571316Y185133D01*
X570440Y182554D01*
X569909Y179883D01*
X569731Y177165D01*
X569909Y174448D01*
X570440Y171777D01*
X571316Y169198D01*
X572520Y166755D01*
X574033Y164491D01*
X575829Y162443D01*
X577877Y160648D01*
X580141Y159134D01*
X580473Y158971D01*
X580360Y158484D01*
X567933D01*
Y188976D01*
X567856Y189360D01*
X567639Y189686D01*
X567313Y189903D01*
X566929Y189980D01*
X220472D01*
X220088Y189903D01*
X219763Y189686D01*
X219545Y189360D01*
X219469Y188976D01*
Y158484D01*
X207042D01*
X206928Y158971D01*
X207260Y159134D01*
X209525Y160648D01*
X211573Y162443D01*
X213368Y164491D01*
X214881Y166755D01*
X216086Y169198D01*
X216961Y171777D01*
X217492Y174448D01*
X217671Y177165D01*
X217492Y179883D01*
X216961Y182554D01*
X216086Y185133D01*
X214881Y187575D01*
X213368Y189840D01*
X211573Y191887D01*
X209525Y193683D01*
X207260Y195196D01*
X204818Y196401D01*
X202239Y197276D01*
X199568Y197807D01*
X196850Y197985D01*
X194133Y197807D01*
X191462Y197276D01*
X188883Y196401D01*
X186440Y195196D01*
X184176Y193683D01*
X182128Y191887D01*
X180333Y189840D01*
X178820Y187575D01*
X177615Y185133D01*
X176740Y182554D01*
X176208Y179883D01*
X176030Y177165D01*
X176208Y174448D01*
X176740Y171777D01*
X177615Y169198D01*
X178820Y166755D01*
X180333Y164491D01*
X182128Y162443D01*
X184176Y160648D01*
X186440Y159134D01*
X186772Y158971D01*
X186659Y158484D01*
X79744D01*
Y471437D01*
X186659D01*
X186772Y470951D01*
X186440Y470787D01*
X184176Y469274D01*
X182128Y467478D01*
X180333Y465430D01*
X178820Y463166D01*
X177615Y460723D01*
X176740Y458145D01*
X176208Y455474D01*
X176030Y452756D01*
X176208Y450038D01*
X176740Y447367D01*
X177615Y444788D01*
X178820Y442346D01*
X180333Y440081D01*
X182128Y438034D01*
X184176Y436238D01*
X186440Y434725D01*
X188883Y433521D01*
X191462Y432645D01*
X194133Y432114D01*
X196850Y431936D01*
X199568Y432114D01*
X202239Y432645D01*
X204818Y433521D01*
X207260Y434725D01*
X209525Y436238D01*
X211573Y438034D01*
X213368Y440081D01*
X214881Y442346D01*
X216086Y444788D01*
X216961Y447367D01*
X217492Y450038D01*
X217671Y452756D01*
X217492Y455474D01*
X216961Y458145D01*
X216086Y460723D01*
X214881Y463166D01*
X213368Y465430D01*
X211573Y467478D01*
X209525Y469274D01*
X207260Y470787D01*
X206928Y470951D01*
X207042Y471437D01*
X580360D01*
X580473Y470951D01*
X580141Y470787D01*
X577877Y469274D01*
X575829Y467478D01*
X574033Y465430D01*
X572520Y463166D01*
X571316Y460723D01*
X570440Y458145D01*
X569909Y455474D01*
X569731Y452756D01*
X569909Y450038D01*
X570440Y447367D01*
X571316Y444788D01*
X572520Y442346D01*
X574033Y440081D01*
X575829Y438034D01*
X577877Y436238D01*
X580141Y434725D01*
X582584Y433521D01*
X585162Y432645D01*
X587834Y432114D01*
X590551Y431936D01*
X593269Y432114D01*
X595940Y432645D01*
X598519Y433521D01*
X600961Y434725D01*
X603226Y436238D01*
X605273Y438034D01*
X607069Y440081D01*
X608582Y442346D01*
X609787Y444788D01*
X610662Y447367D01*
X611193Y450038D01*
X611371Y452756D01*
X611193Y455474D01*
X610662Y458145D01*
X609787Y460723D01*
X608582Y463166D01*
X607069Y465430D01*
X605273Y467478D01*
X603226Y469274D01*
X600961Y470787D01*
X600629Y470951D01*
X600743Y471437D01*
X707658D01*
Y158484D01*
D02*
G37*
%LPC*%
G36*
X352244Y467946D02*
X351268Y467817D01*
X350358Y467440D01*
X349577Y466841D01*
X348977Y466059D01*
X348600Y465150D01*
X348472Y464173D01*
X348600Y463197D01*
X348977Y462287D01*
X349577Y461506D01*
X350358Y460906D01*
X351268Y460529D01*
X352244Y460401D01*
X353221Y460529D01*
X354130Y460906D01*
X354912Y461506D01*
X355511Y462287D01*
X355888Y463197D01*
X356016Y464173D01*
X355888Y465150D01*
X355511Y466059D01*
X354912Y466841D01*
X354130Y467440D01*
X353221Y467817D01*
X352244Y467946D01*
D02*
G37*
G36*
X342244D02*
X341268Y467817D01*
X340358Y467440D01*
X339577Y466841D01*
X338977Y466059D01*
X338600Y465150D01*
X338472Y464173D01*
X338600Y463197D01*
X338977Y462287D01*
X339577Y461506D01*
X340358Y460906D01*
X341268Y460529D01*
X342244Y460401D01*
X343220Y460529D01*
X344130Y460906D01*
X344912Y461506D01*
X345511Y462287D01*
X345888Y463197D01*
X346017Y464173D01*
X345888Y465150D01*
X345511Y466059D01*
X344912Y466841D01*
X344130Y467440D01*
X343220Y467817D01*
X342244Y467946D01*
D02*
G37*
G36*
X332244D02*
X331268Y467817D01*
X330358Y467440D01*
X329577Y466841D01*
X328977Y466059D01*
X328600Y465150D01*
X328472Y464173D01*
X328600Y463197D01*
X328977Y462287D01*
X329577Y461506D01*
X330358Y460906D01*
X331268Y460529D01*
X332244Y460401D01*
X333221Y460529D01*
X334130Y460906D01*
X334912Y461506D01*
X335511Y462287D01*
X335888Y463197D01*
X336017Y464173D01*
X335888Y465150D01*
X335511Y466059D01*
X334912Y466841D01*
X334130Y467440D01*
X333221Y467817D01*
X332244Y467946D01*
D02*
G37*
G36*
X362244D02*
X361268Y467817D01*
X360358Y467440D01*
X359577Y466841D01*
X358977Y466059D01*
X358600Y465150D01*
X358472Y464173D01*
X358600Y463197D01*
X358977Y462287D01*
X359577Y461506D01*
X360358Y460906D01*
X360784Y460730D01*
Y452385D01*
X360284Y452285D01*
X359960Y453067D01*
X359360Y453849D01*
X358579Y454448D01*
X357669Y454825D01*
X356693Y454953D01*
X355717Y454825D01*
X354807Y454448D01*
X354025Y453849D01*
X353426Y453067D01*
X353049Y452157D01*
X352921Y451181D01*
X353049Y450205D01*
X353426Y449295D01*
X354025Y448514D01*
X354807Y447914D01*
X355717Y447537D01*
X356693Y447409D01*
X357669Y447537D01*
X358579Y447914D01*
X359360Y448514D01*
X359960Y449295D01*
X360284Y450077D01*
X360784Y449978D01*
Y439005D01*
X360284Y438705D01*
X360173Y438765D01*
X360163Y438811D01*
X359811Y439338D01*
X359284Y439691D01*
X358661Y439815D01*
X358039Y439691D01*
X357512Y439338D01*
X357159Y438811D01*
X357055Y438284D01*
X356861Y438021D01*
X356598Y437827D01*
X356071Y437722D01*
X355543Y437370D01*
X355191Y436843D01*
X355086Y436315D01*
X354874Y436028D01*
X354724Y435878D01*
X354102Y435754D01*
X353575Y435401D01*
X353222Y434874D01*
X353099Y434252D01*
X352949Y434102D01*
X352661Y433890D01*
X352134Y433785D01*
X351606Y433433D01*
X351254Y432906D01*
X351130Y432283D01*
X351130Y432283D01*
X350972Y432125D01*
X350693Y431921D01*
X350165Y431816D01*
X349637Y431464D01*
X349285Y430936D01*
X349180Y430410D01*
X348959Y430113D01*
X348819Y429972D01*
X348819Y429972D01*
X348197Y429848D01*
X347669Y429496D01*
X347317Y428969D01*
X347193Y428346D01*
X347317Y427724D01*
X347669Y427197D01*
X348197Y426845D01*
X348722Y426740D01*
X348796Y426667D01*
Y401286D01*
X277454Y329944D01*
X255512D01*
X255051Y329853D01*
X254894Y329748D01*
X254660Y329592D01*
X254660Y329592D01*
X211353Y286285D01*
X211092Y285894D01*
X211000Y285433D01*
X211000Y285433D01*
Y243019D01*
X209737Y241755D01*
X208860D01*
X208578Y242437D01*
X207979Y243219D01*
X207197Y243818D01*
X206287Y244195D01*
X205311Y244324D01*
X204335Y244195D01*
X203425Y243818D01*
X202643Y243219D01*
X202044Y242437D01*
X201667Y241528D01*
X201539Y240551D01*
X201667Y239575D01*
X202044Y238665D01*
X202612Y237925D01*
X202551Y237611D01*
X202488Y237425D01*
X182648D01*
X181180Y238893D01*
X181463Y239575D01*
X181591Y240551D01*
X181463Y241528D01*
X181086Y242437D01*
X180486Y243219D01*
X179705Y243818D01*
X178795Y244195D01*
X177819Y244324D01*
X176842Y244195D01*
X175933Y243818D01*
X175151Y243219D01*
X174552Y242437D01*
X174175Y241528D01*
X174047Y240551D01*
X174175Y239575D01*
X174552Y238665D01*
X175151Y237884D01*
X175933Y237284D01*
X176842Y236907D01*
X177819Y236779D01*
X178795Y236907D01*
X179477Y237190D01*
X181298Y235369D01*
X181689Y235108D01*
X182150Y235016D01*
X182150Y235016D01*
X213386D01*
X213386Y235016D01*
X213847Y235108D01*
X214237Y235369D01*
X215419Y236550D01*
X215680Y236941D01*
X215771Y237402D01*
Y238018D01*
X216271Y238286D01*
X216307Y238262D01*
X216929Y238138D01*
X217551Y238262D01*
X218079Y238614D01*
X218535D01*
X218535Y238614D01*
X219062Y238261D01*
X219685Y238138D01*
X220307Y238261D01*
X220343Y238286D01*
X220843Y238018D01*
Y237402D01*
X220843Y237402D01*
X220935Y236941D01*
X221196Y236550D01*
X222377Y235369D01*
X222767Y235108D01*
X223228Y235016D01*
X255772D01*
X255772Y235016D01*
X256233Y235108D01*
X256623Y235369D01*
X258444Y237190D01*
X259126Y236907D01*
X260102Y236779D01*
X261079Y236907D01*
X261989Y237284D01*
X262770Y237884D01*
X263369Y238665D01*
X263746Y239575D01*
X263875Y240551D01*
X263746Y241528D01*
X263369Y242437D01*
X262770Y243219D01*
X261989Y243818D01*
X261079Y244195D01*
X260102Y244324D01*
X259126Y244195D01*
X258216Y243818D01*
X257435Y243219D01*
X256835Y242437D01*
X256458Y241528D01*
X256330Y240551D01*
X256458Y239575D01*
X256741Y238893D01*
X255273Y237425D01*
X235434D01*
X235370Y237611D01*
X235309Y237925D01*
X235877Y238665D01*
X236254Y239575D01*
X236383Y240551D01*
X236254Y241528D01*
X235877Y242437D01*
X235278Y243219D01*
X234496Y243818D01*
X233587Y244195D01*
X232610Y244324D01*
X231634Y244195D01*
X230724Y243818D01*
X229943Y243219D01*
X229343Y242437D01*
X229061Y241755D01*
X227271D01*
X225614Y243412D01*
Y280997D01*
X260341Y315725D01*
X279921D01*
X279921Y315725D01*
X280382Y315817D01*
X280773Y316078D01*
X360284Y395589D01*
X360784Y395382D01*
Y371148D01*
X357777Y368141D01*
X357251Y368037D01*
X356724Y367684D01*
X356371Y367157D01*
X356248Y366535D01*
X356371Y365913D01*
X356724Y365385D01*
X357251Y365033D01*
X357873Y364909D01*
X358495Y365033D01*
X359023Y365385D01*
X359375Y365913D01*
X359480Y366438D01*
X362840Y369798D01*
X362840Y369798D01*
X363101Y370189D01*
X363192Y370650D01*
Y460526D01*
X363221Y460529D01*
X364130Y460906D01*
X364912Y461506D01*
X365511Y462287D01*
X365888Y463197D01*
X366017Y464173D01*
X365888Y465150D01*
X365511Y466059D01*
X364912Y466841D01*
X364130Y467440D01*
X363221Y467817D01*
X362244Y467946D01*
D02*
G37*
G36*
X350433Y454921D02*
X342953D01*
Y447441D01*
X350433D01*
Y454921D01*
D02*
G37*
G36*
X530315Y440968D02*
X530315Y440968D01*
X457874D01*
X457874Y440968D01*
X457413Y440876D01*
X457022Y440615D01*
X445212Y428804D01*
X444950Y428414D01*
X444859Y427953D01*
X444859Y427953D01*
Y398137D01*
X432178Y385456D01*
X406948D01*
X406842Y385605D01*
X406727Y385956D01*
X407014Y386386D01*
X407137Y387008D01*
X407014Y387630D01*
X406661Y388157D01*
X406219Y388453D01*
X406261Y388845D01*
X406302Y388953D01*
X419405D01*
X419850Y388655D01*
X420472Y388532D01*
X421095Y388655D01*
X421622Y389008D01*
X421974Y389535D01*
X422098Y390158D01*
X421974Y390780D01*
X421622Y391307D01*
X421095Y391659D01*
X420472Y391783D01*
X419850Y391659D01*
X419405Y391362D01*
X378845D01*
X374047Y396160D01*
X373943Y396685D01*
X373590Y397213D01*
X373063Y397565D01*
X372441Y397689D01*
X371819Y397565D01*
X371291Y397213D01*
X370939Y396685D01*
X370815Y396063D01*
X370939Y395441D01*
X371291Y394913D01*
X371819Y394561D01*
X372344Y394457D01*
X377495Y389306D01*
X377495Y389306D01*
X377886Y389045D01*
X378346Y388953D01*
X404504D01*
X404670Y388453D01*
X404410Y388212D01*
X372152D01*
X366953Y393412D01*
Y417437D01*
X367250Y417882D01*
X367374Y418504D01*
X367250Y419127D01*
X366898Y419654D01*
X366371Y420006D01*
X365749Y420130D01*
X365126Y420006D01*
X364599Y419654D01*
X364247Y419127D01*
X364123Y418504D01*
X364247Y417882D01*
X364544Y417437D01*
Y392913D01*
X364544Y392913D01*
X364636Y392452D01*
X364897Y392061D01*
X370802Y386156D01*
X370802Y386156D01*
X371193Y385895D01*
X371654Y385804D01*
X393052D01*
X393158Y385655D01*
X393273Y385304D01*
X392986Y384874D01*
X392863Y384252D01*
X392986Y383630D01*
X393339Y383102D01*
X393866Y382750D01*
X394488Y382626D01*
X394892Y382197D01*
X394831Y381890D01*
X394955Y381268D01*
X395307Y380740D01*
X395834Y380388D01*
X396457Y380264D01*
X396861Y379835D01*
X396799Y379528D01*
X396923Y378905D01*
X397276Y378378D01*
X397803Y378026D01*
X398425Y377902D01*
X398854Y377987D01*
X398878Y377976D01*
X399236Y377618D01*
X399247Y377594D01*
X399162Y377165D01*
X399285Y376543D01*
X399638Y376016D01*
X400165Y375663D01*
X400787Y375540D01*
X401191Y375110D01*
X401130Y374803D01*
X401254Y374181D01*
X401606Y373653D01*
X402133Y373301D01*
X402755Y373177D01*
X403378Y373301D01*
X403823Y373599D01*
X498818D01*
X498818Y373598D01*
X499279Y373690D01*
X499670Y373951D01*
X514788Y389070D01*
X514788Y389070D01*
X515050Y389460D01*
X515141Y389921D01*
X515141Y389921D01*
Y393954D01*
X515823Y394237D01*
X516605Y394836D01*
X517204Y395618D01*
X517581Y396528D01*
X517709Y397504D01*
X517581Y398480D01*
X517204Y399390D01*
X516605Y400171D01*
X515823Y400771D01*
X515141Y401053D01*
Y421447D01*
X515823Y421729D01*
X516605Y422329D01*
X517204Y423110D01*
X517581Y424020D01*
X517709Y424996D01*
X517581Y425972D01*
X517204Y426882D01*
X516605Y427664D01*
X515823Y428263D01*
X514913Y428640D01*
X513937Y428768D01*
X512961Y428640D01*
X512051Y428263D01*
X511270Y427664D01*
X510670Y426882D01*
X510293Y425972D01*
X510165Y424996D01*
X510293Y424020D01*
X510670Y423110D01*
X511270Y422329D01*
X512051Y421729D01*
X512733Y421447D01*
Y401053D01*
X512051Y400771D01*
X511270Y400171D01*
X510670Y399390D01*
X510293Y398480D01*
X510165Y397504D01*
X510293Y396528D01*
X510670Y395618D01*
X511270Y394836D01*
X512051Y394237D01*
X512733Y393954D01*
Y390420D01*
X498320Y376007D01*
X482748D01*
X482541Y376507D01*
X495104Y389070D01*
X495365Y389460D01*
X495456Y389921D01*
Y393954D01*
X496138Y394237D01*
X496919Y394836D01*
X497519Y395618D01*
X497896Y396528D01*
X498024Y397504D01*
X497896Y398480D01*
X497519Y399390D01*
X496919Y400171D01*
X496138Y400771D01*
X495456Y401053D01*
Y421447D01*
X496138Y421729D01*
X496919Y422329D01*
X497519Y423110D01*
X497896Y424020D01*
X498024Y424996D01*
X497896Y425972D01*
X497519Y426882D01*
X496919Y427664D01*
X496138Y428263D01*
X495228Y428640D01*
X494252Y428768D01*
X493276Y428640D01*
X492366Y428263D01*
X491584Y427664D01*
X490985Y426882D01*
X490608Y425972D01*
X490480Y424996D01*
X490608Y424020D01*
X490985Y423110D01*
X491584Y422329D01*
X492366Y421729D01*
X493048Y421447D01*
Y401053D01*
X492366Y400771D01*
X491584Y400171D01*
X490985Y399390D01*
X490608Y398480D01*
X490480Y397504D01*
X490608Y396528D01*
X490985Y395618D01*
X491584Y394836D01*
X492366Y394237D01*
X493048Y393954D01*
Y390420D01*
X480997Y378370D01*
X465425D01*
X465218Y378870D01*
X475419Y389070D01*
X475679Y389460D01*
X475771Y389921D01*
Y393954D01*
X476453Y394237D01*
X477234Y394836D01*
X477834Y395618D01*
X478211Y396528D01*
X478339Y397504D01*
X478211Y398480D01*
X477834Y399390D01*
X477234Y400171D01*
X476453Y400771D01*
X475771Y401053D01*
Y421447D01*
X476453Y421729D01*
X477234Y422329D01*
X477834Y423110D01*
X478211Y424020D01*
X478339Y424996D01*
X478211Y425972D01*
X477834Y426882D01*
X477234Y427664D01*
X476453Y428263D01*
X475543Y428640D01*
X474567Y428768D01*
X473591Y428640D01*
X472681Y428263D01*
X471899Y427664D01*
X471300Y426882D01*
X470923Y425972D01*
X470794Y424996D01*
X470923Y424020D01*
X471300Y423110D01*
X471899Y422329D01*
X472681Y421729D01*
X473363Y421447D01*
Y401053D01*
X472681Y400771D01*
X471899Y400171D01*
X471300Y399390D01*
X470923Y398480D01*
X470794Y397504D01*
X470923Y396528D01*
X471300Y395618D01*
X471899Y394836D01*
X472681Y394237D01*
X473363Y393954D01*
Y390420D01*
X463674Y380732D01*
X439047D01*
X438840Y381232D01*
X452033Y394424D01*
X452033Y394424D01*
X452294Y394815D01*
X452385Y395276D01*
X452385Y395276D01*
Y424698D01*
X462310Y434622D01*
X522293D01*
X530261Y426654D01*
X529978Y425972D01*
X529850Y424996D01*
X529978Y424020D01*
X530355Y423110D01*
X530955Y422329D01*
X531736Y421729D01*
X532646Y421352D01*
X533622Y421224D01*
X534598Y421352D01*
X535508Y421729D01*
X536290Y422329D01*
X536878Y423096D01*
X536924Y423101D01*
X537378Y422985D01*
Y402963D01*
X535280Y400865D01*
X534598Y401148D01*
X533622Y401276D01*
X532646Y401148D01*
X531736Y400771D01*
X530955Y400171D01*
X530355Y399390D01*
X529978Y398480D01*
X529850Y397504D01*
X529978Y396528D01*
X530355Y395618D01*
X530955Y394836D01*
X531736Y394237D01*
X532646Y393860D01*
X533622Y393731D01*
X534598Y393860D01*
X535508Y394237D01*
X536290Y394836D01*
X536889Y395618D01*
X537266Y396528D01*
X537395Y397504D01*
X537266Y398480D01*
X536983Y399162D01*
X539434Y401613D01*
X539695Y402004D01*
X539787Y402465D01*
X539787Y402465D01*
Y431496D01*
X539695Y431957D01*
X539434Y432348D01*
X531167Y440615D01*
X530776Y440876D01*
X530315Y440968D01*
D02*
G37*
G36*
X372244Y467946D02*
X371268Y467817D01*
X370358Y467440D01*
X369577Y466841D01*
X368977Y466059D01*
X368600Y465150D01*
X368472Y464173D01*
X368600Y463197D01*
X368977Y462287D01*
X369577Y461506D01*
X370358Y460906D01*
X371040Y460624D01*
Y444003D01*
X364896Y437859D01*
X364635Y437469D01*
X364544Y437008D01*
X364544Y437008D01*
Y428740D01*
X364544Y428740D01*
X364635Y428279D01*
X364896Y427889D01*
X368481Y424304D01*
Y407761D01*
X368183Y407315D01*
X368059Y406693D01*
X368183Y406071D01*
X368535Y405543D01*
X369063Y405191D01*
X369685Y405067D01*
X370307Y405191D01*
X370835Y405543D01*
X371187Y406071D01*
X371311Y406693D01*
X371187Y407315D01*
X370889Y407761D01*
Y424803D01*
X370798Y425264D01*
X370537Y425655D01*
X370536Y425655D01*
X366952Y429239D01*
Y432816D01*
X367101Y432922D01*
X367452Y433037D01*
X367882Y432750D01*
X368504Y432626D01*
X369126Y432750D01*
X369654Y433102D01*
X370006Y433630D01*
X370077Y433987D01*
X370365Y434190D01*
X370872Y433966D01*
X370939Y433630D01*
X371291Y433102D01*
X371819Y432750D01*
X372441Y432626D01*
X373063Y432750D01*
X373590Y433102D01*
X373943Y433630D01*
X374014Y433987D01*
X374302Y434190D01*
X374809Y433966D01*
X374876Y433630D01*
X375228Y433102D01*
X375756Y432750D01*
X376378Y432626D01*
X377000Y432750D01*
X377527Y433102D01*
X377880Y433630D01*
X377984Y434155D01*
X378695Y434866D01*
X379156Y434620D01*
X379083Y434252D01*
X379207Y433630D01*
X379559Y433102D01*
X380086Y432750D01*
X380709Y432626D01*
X381331Y432750D01*
X381858Y433102D01*
X382211Y433630D01*
X382315Y434155D01*
X383026Y434866D01*
X383487Y434620D01*
X383414Y434252D01*
X383537Y433630D01*
X383890Y433102D01*
X384417Y432750D01*
X384525Y432729D01*
X384755Y432173D01*
X384718Y432118D01*
X384595Y431496D01*
X384718Y430874D01*
X385071Y430346D01*
X385598Y429994D01*
X385673Y429979D01*
Y429469D01*
X385598Y429455D01*
X385071Y429102D01*
X384718Y428575D01*
X384595Y427953D01*
X384718Y427331D01*
X385071Y426803D01*
X385598Y426451D01*
X386221Y426327D01*
X386843Y426451D01*
X387370Y426803D01*
X387722Y427331D01*
X387827Y427856D01*
X387900Y427930D01*
X425197D01*
X425197Y427930D01*
X425658Y428021D01*
X426048Y428282D01*
X439513Y441747D01*
X439513Y441747D01*
X439774Y442138D01*
X439866Y442598D01*
X439866Y442598D01*
Y447632D01*
X440548Y447914D01*
X441329Y448514D01*
X441928Y449295D01*
X442305Y450205D01*
X442434Y451181D01*
X442305Y452157D01*
X441928Y453067D01*
X441329Y453849D01*
X440548Y454448D01*
X439638Y454825D01*
X438661Y454953D01*
X437685Y454825D01*
X436775Y454448D01*
X435994Y453849D01*
X435394Y453067D01*
X435017Y452157D01*
X434889Y451181D01*
X435017Y450205D01*
X435394Y449295D01*
X435994Y448514D01*
X436775Y447914D01*
X437457Y447632D01*
Y443097D01*
X424698Y430338D01*
X421331D01*
X421124Y430838D01*
X429513Y439227D01*
X429513Y439227D01*
X429774Y439618D01*
X429866Y440079D01*
Y447632D01*
X430548Y447914D01*
X431329Y448514D01*
X431928Y449295D01*
X432305Y450205D01*
X432434Y451181D01*
X432305Y452157D01*
X431928Y453067D01*
X431329Y453849D01*
X430548Y454448D01*
X429638Y454825D01*
X428661Y454953D01*
X427685Y454825D01*
X426775Y454448D01*
X425994Y453849D01*
X425394Y453067D01*
X425017Y452157D01*
X424889Y451181D01*
X425017Y450205D01*
X425394Y449295D01*
X425994Y448514D01*
X426775Y447914D01*
X427457Y447632D01*
Y440578D01*
X419580Y432700D01*
X408509D01*
X408488Y432754D01*
X408426Y433200D01*
X408726Y433400D01*
X419513Y444188D01*
X419513Y444188D01*
X419774Y444579D01*
X419866Y445039D01*
X419866Y445039D01*
Y447632D01*
X420548Y447914D01*
X421329Y448514D01*
X421928Y449295D01*
X422305Y450205D01*
X422434Y451181D01*
X422305Y452157D01*
X421928Y453067D01*
X421329Y453849D01*
X420548Y454448D01*
X419638Y454825D01*
X418661Y454953D01*
X417685Y454825D01*
X416775Y454448D01*
X415994Y453849D01*
X415394Y453067D01*
X415018Y452157D01*
X414889Y451181D01*
X415018Y450205D01*
X415394Y449295D01*
X415994Y448514D01*
X416775Y447914D01*
X417457Y447632D01*
Y445538D01*
X407375Y435456D01*
X386141D01*
X385882Y435697D01*
X386047Y436197D01*
X400787D01*
X400787Y436197D01*
X401248Y436289D01*
X401639Y436550D01*
X409513Y444424D01*
X409513Y444424D01*
X409774Y444815D01*
X409866Y445276D01*
X409866Y445276D01*
Y447632D01*
X410548Y447914D01*
X411329Y448514D01*
X411928Y449295D01*
X412305Y450205D01*
X412434Y451181D01*
X412305Y452157D01*
X411928Y453067D01*
X411329Y453849D01*
X410548Y454448D01*
X409638Y454825D01*
X408661Y454953D01*
X407685Y454825D01*
X406775Y454448D01*
X405994Y453849D01*
X405394Y453067D01*
X405018Y452157D01*
X404889Y451181D01*
X405018Y450205D01*
X405394Y449295D01*
X405994Y448514D01*
X406775Y447914D01*
X407457Y447632D01*
Y445774D01*
X400289Y438606D01*
X393942D01*
X393921Y438660D01*
X393859Y439106D01*
X394159Y439306D01*
X399513Y444660D01*
X399513Y444660D01*
X399774Y445051D01*
X399866Y445512D01*
X399866Y445512D01*
Y447632D01*
X400548Y447914D01*
X401329Y448514D01*
X401928Y449295D01*
X402305Y450205D01*
X402434Y451181D01*
X402305Y452157D01*
X401928Y453067D01*
X401329Y453849D01*
X400548Y454448D01*
X399638Y454825D01*
X398661Y454953D01*
X397685Y454825D01*
X396775Y454448D01*
X395994Y453849D01*
X395394Y453067D01*
X395018Y452157D01*
X394889Y451181D01*
X395018Y450205D01*
X395394Y449295D01*
X395994Y448514D01*
X396775Y447914D01*
X397457Y447632D01*
Y446011D01*
X392808Y441362D01*
X382283D01*
X381839Y441729D01*
X382174Y442103D01*
X387008D01*
X387008Y442103D01*
X387469Y442195D01*
X387859Y442456D01*
X389513Y444109D01*
X389513Y444109D01*
X389774Y444500D01*
X389866Y444961D01*
Y447632D01*
X390548Y447914D01*
X391329Y448514D01*
X391928Y449295D01*
X392305Y450205D01*
X392434Y451181D01*
X392305Y452157D01*
X391928Y453067D01*
X391329Y453849D01*
X390548Y454448D01*
X389638Y454825D01*
X388661Y454953D01*
X387685Y454825D01*
X386775Y454448D01*
X385994Y453849D01*
X385394Y453067D01*
X385017Y452157D01*
X384889Y451181D01*
X385017Y450205D01*
X385394Y449295D01*
X385994Y448514D01*
X386775Y447914D01*
X387457Y447632D01*
Y445460D01*
X386509Y444511D01*
X381496D01*
X381035Y444420D01*
X380879Y444315D01*
X380644Y444159D01*
X380644Y444159D01*
X380382Y443896D01*
X380276Y443912D01*
X379866Y444410D01*
X379866Y444410D01*
Y447441D01*
X382402D01*
Y454921D01*
X374921D01*
Y447441D01*
X377457D01*
Y444908D01*
X368407Y435858D01*
X367882Y435754D01*
X367452Y435467D01*
X367101Y435582D01*
X366952Y435688D01*
Y436509D01*
X373096Y442652D01*
X373096Y442652D01*
X373357Y443043D01*
X373448Y443504D01*
X373448Y443504D01*
Y460624D01*
X374130Y460906D01*
X374912Y461506D01*
X375511Y462287D01*
X375888Y463197D01*
X376016Y464173D01*
X375888Y465150D01*
X375511Y466059D01*
X374912Y466841D01*
X374130Y467440D01*
X373220Y467817D01*
X372244Y467946D01*
D02*
G37*
G36*
X235039Y426429D02*
X234417Y426305D01*
X233972Y426007D01*
X186614D01*
X186614Y426007D01*
X186153Y425916D01*
X185763Y425655D01*
X185763Y425655D01*
X154267Y394159D01*
X154006Y393768D01*
X153914Y393307D01*
X153914Y393307D01*
Y374515D01*
X120770Y341370D01*
X120244Y341266D01*
X119717Y340913D01*
X119364Y340386D01*
X119240Y339764D01*
X119364Y339142D01*
X119717Y338614D01*
X120244Y338262D01*
X120866Y338138D01*
X121488Y338262D01*
X122016Y338614D01*
X122368Y339142D01*
X122473Y339667D01*
X155970Y373164D01*
X156231Y373555D01*
X156322Y374016D01*
Y392808D01*
X187113Y423599D01*
X233972D01*
X234417Y423301D01*
X235039Y423177D01*
X235662Y423301D01*
X236107Y423599D01*
X275092D01*
X285369Y413322D01*
X285369Y413322D01*
X285760Y413061D01*
X286221Y412969D01*
X286221Y412969D01*
X335153D01*
X335598Y412671D01*
X336221Y412547D01*
X336843Y412671D01*
X337370Y413024D01*
X337722Y413551D01*
X337846Y414173D01*
X337722Y414795D01*
X337370Y415323D01*
X336843Y415675D01*
X336221Y415799D01*
X335598Y415675D01*
X335153Y415378D01*
X286719D01*
X276442Y425655D01*
X276051Y425916D01*
X275590Y426007D01*
X275590Y426007D01*
X236107D01*
X235662Y426305D01*
X235039Y426429D01*
D02*
G37*
G36*
X290551Y428004D02*
X289929Y427880D01*
X289402Y427528D01*
X289049Y427000D01*
X288926Y426378D01*
X289049Y425756D01*
X289402Y425228D01*
X289929Y424876D01*
X290551Y424752D01*
X291173Y424876D01*
X291619Y425174D01*
X340663D01*
X341109Y424875D01*
X341732Y424751D01*
X342354Y424875D01*
X342881Y425227D01*
X343234Y425755D01*
X343357Y426377D01*
X343234Y426999D01*
X342881Y427527D01*
X342354Y427879D01*
X341732Y428003D01*
X341109Y427879D01*
X340665Y427582D01*
X291619D01*
X291173Y427880D01*
X290551Y428004D01*
D02*
G37*
G36*
X553307Y428768D02*
X552331Y428640D01*
X551421Y428263D01*
X550640Y427664D01*
X550040Y426882D01*
X549663Y425972D01*
X549535Y424996D01*
X549663Y424020D01*
X550040Y423110D01*
X550640Y422329D01*
X551421Y421729D01*
X552331Y421352D01*
X553307Y421224D01*
X554284Y421352D01*
X555193Y421729D01*
X555975Y422329D01*
X556574Y423110D01*
X556951Y424020D01*
X557080Y424996D01*
X556951Y425972D01*
X556574Y426882D01*
X555975Y427664D01*
X555193Y428263D01*
X554284Y428640D01*
X553307Y428768D01*
D02*
G37*
G36*
X418898Y425220D02*
X418898Y425220D01*
X394488D01*
X394027Y425128D01*
X393637Y424867D01*
X390487Y421718D01*
X390226Y421327D01*
X390134Y420866D01*
X390134Y420866D01*
Y410517D01*
X389837Y410071D01*
X389713Y409449D01*
X389837Y408827D01*
X390189Y408299D01*
X390716Y407947D01*
X391339Y407823D01*
X391961Y407947D01*
X392488Y408299D01*
X392841Y408827D01*
X392964Y409449D01*
X392841Y410071D01*
X392543Y410517D01*
Y420367D01*
X394987Y422812D01*
X418399D01*
X418886Y422325D01*
X418990Y421799D01*
X419343Y421272D01*
X419870Y420919D01*
X420492Y420795D01*
X421114Y420919D01*
X421642Y421272D01*
X421994Y421799D01*
X422118Y422421D01*
X421994Y423043D01*
X421642Y423571D01*
X421114Y423923D01*
X420589Y424028D01*
X419749Y424867D01*
X419358Y425128D01*
X418898Y425220D01*
D02*
G37*
G36*
X281693Y427807D02*
X281071Y427683D01*
X280543Y427331D01*
X280191Y426803D01*
X280067Y426181D01*
X280191Y425559D01*
X280543Y425032D01*
X281071Y424679D01*
X281596Y424575D01*
X288519Y417653D01*
X288519Y417652D01*
X288753Y417496D01*
X288909Y417391D01*
X289370Y417300D01*
X339090D01*
X339535Y417002D01*
X340158Y416878D01*
X340780Y417002D01*
X341307Y417354D01*
X341659Y417882D01*
X341783Y418504D01*
X341659Y419126D01*
X341307Y419654D01*
X340780Y420006D01*
X340158Y420130D01*
X339535Y420006D01*
X339090Y419708D01*
X289869D01*
X283299Y426278D01*
X283195Y426803D01*
X282842Y427331D01*
X282315Y427683D01*
X281693Y427807D01*
D02*
G37*
G36*
X434646Y412256D02*
X434024Y412132D01*
X433578Y411834D01*
X428740D01*
X428740Y411834D01*
X428279Y411742D01*
X427889Y411482D01*
X427889Y411481D01*
X418399Y401992D01*
X372721D01*
X372276Y402289D01*
X371654Y402413D01*
X371031Y402289D01*
X370504Y401937D01*
X370152Y401409D01*
X370028Y400787D01*
X370152Y400165D01*
X370504Y399638D01*
X371031Y399285D01*
X371654Y399162D01*
X372276Y399285D01*
X372721Y399583D01*
X418898D01*
X418898Y399583D01*
X419358Y399675D01*
X419749Y399936D01*
X429239Y409426D01*
X433578D01*
X434024Y409128D01*
X434646Y409004D01*
X435268Y409128D01*
X435795Y409480D01*
X436148Y410008D01*
X436271Y410630D01*
X436148Y411252D01*
X435795Y411779D01*
X435268Y412132D01*
X434646Y412256D01*
D02*
G37*
G36*
X553307Y401276D02*
X552331Y401148D01*
X551421Y400771D01*
X550640Y400171D01*
X550040Y399390D01*
X549663Y398480D01*
X549535Y397504D01*
X549663Y396528D01*
X550040Y395618D01*
X550640Y394836D01*
X551421Y394237D01*
X552331Y393860D01*
X553307Y393731D01*
X554284Y393860D01*
X555193Y394237D01*
X555975Y394836D01*
X556574Y395618D01*
X556951Y396528D01*
X557080Y397504D01*
X556951Y398480D01*
X556574Y399390D01*
X555975Y400171D01*
X555193Y400771D01*
X554284Y401148D01*
X553307Y401276D01*
D02*
G37*
G36*
X566142Y352019D02*
X565520Y351896D01*
X565074Y351598D01*
X550280D01*
X549835Y351896D01*
X549213Y352019D01*
X548591Y351896D01*
X548063Y351543D01*
X547711Y351016D01*
X547587Y350394D01*
X547711Y349772D01*
X548063Y349244D01*
X548591Y348892D01*
X549213Y348768D01*
X549835Y348892D01*
X550280Y349189D01*
X565074D01*
X565520Y348892D01*
X566142Y348768D01*
X566764Y348892D01*
X567291Y349244D01*
X567644Y349772D01*
X567767Y350394D01*
X567644Y351016D01*
X567291Y351543D01*
X566764Y351896D01*
X566142Y352019D01*
D02*
G37*
G36*
X608268Y353988D02*
X607646Y353864D01*
X607118Y353512D01*
X606766Y352984D01*
X606642Y352362D01*
X606766Y351740D01*
X607118Y351213D01*
X607646Y350860D01*
X608268Y350736D01*
X608890Y350860D01*
X609336Y351158D01*
X614068D01*
X615290Y349936D01*
X615290Y349936D01*
X615524Y349779D01*
X615681Y349675D01*
X616142Y349583D01*
X619405D01*
X619850Y349285D01*
X620472Y349162D01*
X621095Y349285D01*
X621622Y349638D01*
X621974Y350165D01*
X622098Y350787D01*
X621974Y351410D01*
X621622Y351937D01*
X621095Y352289D01*
X620472Y352413D01*
X619850Y352289D01*
X619405Y351992D01*
X616641D01*
X615418Y353214D01*
X615028Y353475D01*
X614567Y353566D01*
X614567Y353566D01*
X609336D01*
X608890Y353864D01*
X608268Y353988D01*
D02*
G37*
G36*
X580709Y355956D02*
X580087Y355833D01*
X579559Y355480D01*
X579207Y354953D01*
X579083Y354331D01*
X579207Y353709D01*
X579559Y353181D01*
X580087Y352829D01*
X580709Y352705D01*
X581331Y352829D01*
X581776Y353127D01*
X588084D01*
X590913Y350297D01*
X591018Y349771D01*
X591370Y349244D01*
X591897Y348892D01*
X592520Y348768D01*
X593142Y348892D01*
X593669Y349244D01*
X594022Y349771D01*
X594145Y350394D01*
X594022Y351016D01*
X593669Y351543D01*
X593142Y351896D01*
X592616Y352000D01*
X589434Y355182D01*
X589044Y355443D01*
X588583Y355535D01*
X588583Y355535D01*
X581776D01*
X581331Y355833D01*
X580709Y355956D01*
D02*
G37*
G36*
X653150Y346508D02*
X652528Y346384D01*
X652082Y346086D01*
X559729D01*
X559284Y346384D01*
X558661Y346508D01*
X558039Y346384D01*
X557512Y346031D01*
X557160Y345504D01*
X557036Y344882D01*
X557160Y344260D01*
X557512Y343732D01*
X557698Y343608D01*
Y343006D01*
X557512Y342882D01*
X557160Y342354D01*
X557036Y341732D01*
X557160Y341110D01*
X557445Y340683D01*
X557484Y340354D01*
X557445Y340026D01*
X557160Y339598D01*
X557036Y338976D01*
X557160Y338354D01*
X557512Y337827D01*
Y337370D01*
X557160Y336843D01*
X557036Y336221D01*
X557160Y335598D01*
X557512Y335071D01*
X558039Y334718D01*
X558661Y334595D01*
X559284Y334718D01*
X559729Y335016D01*
X569798D01*
X570244Y334718D01*
X570866Y334595D01*
X571488Y334718D01*
X572016Y335071D01*
X572368Y335598D01*
X572492Y336221D01*
X572368Y336843D01*
X572081Y337272D01*
X572196Y337624D01*
X572303Y337772D01*
X597358D01*
X597803Y337474D01*
X598425Y337351D01*
X599047Y337474D01*
X599575Y337827D01*
X599927Y338354D01*
X600051Y338976D01*
X599927Y339598D01*
X599640Y340028D01*
X599756Y340379D01*
X599862Y340528D01*
X624917D01*
X625362Y340230D01*
X625984Y340107D01*
X626606Y340230D01*
X627134Y340583D01*
X627486Y341110D01*
X627610Y341732D01*
X627486Y342354D01*
X627134Y342882D01*
X626691Y343178D01*
X626733Y343570D01*
X626774Y343678D01*
X652082D01*
X652528Y343380D01*
X653150Y343256D01*
X653772Y343380D01*
X654299Y343732D01*
X654652Y344260D01*
X654775Y344882D01*
X654652Y345504D01*
X654299Y346031D01*
X653772Y346384D01*
X653150Y346508D01*
D02*
G37*
G36*
X449488Y352953D02*
X442008D01*
Y345472D01*
X449488D01*
Y352953D01*
D02*
G37*
G36*
X435748Y352985D02*
X434772Y352856D01*
X433862Y352480D01*
X433080Y351880D01*
X432481Y351099D01*
X432104Y350189D01*
X431976Y349213D01*
X432104Y348236D01*
X432481Y347326D01*
X433080Y346545D01*
X433862Y345946D01*
X434772Y345569D01*
X435748Y345440D01*
X436724Y345569D01*
X437634Y345946D01*
X438415Y346545D01*
X439015Y347326D01*
X439392Y348236D01*
X439520Y349213D01*
X439392Y350189D01*
X439015Y351099D01*
X438415Y351880D01*
X437634Y352480D01*
X436724Y352856D01*
X435748Y352985D01*
D02*
G37*
G36*
X425748D02*
X424772Y352856D01*
X423862Y352480D01*
X423080Y351880D01*
X422481Y351099D01*
X422104Y350189D01*
X421976Y349213D01*
X422104Y348236D01*
X422481Y347326D01*
X423080Y346545D01*
X423862Y345946D01*
X424772Y345569D01*
X425748Y345440D01*
X426724Y345569D01*
X427634Y345946D01*
X428415Y346545D01*
X429015Y347326D01*
X429392Y348236D01*
X429520Y349213D01*
X429392Y350189D01*
X429015Y351099D01*
X428415Y351880D01*
X427634Y352480D01*
X426724Y352856D01*
X425748Y352985D01*
D02*
G37*
G36*
X415748D02*
X414772Y352856D01*
X413862Y352480D01*
X413081Y351880D01*
X412481Y351099D01*
X412104Y350189D01*
X411976Y349213D01*
X412104Y348236D01*
X412481Y347326D01*
X413081Y346545D01*
X413862Y345946D01*
X414772Y345569D01*
X415748Y345440D01*
X416724Y345569D01*
X417634Y345946D01*
X418415Y346545D01*
X419015Y347326D01*
X419392Y348236D01*
X419520Y349213D01*
X419392Y350189D01*
X419015Y351099D01*
X418415Y351880D01*
X417634Y352480D01*
X416724Y352856D01*
X415748Y352985D01*
D02*
G37*
G36*
X369685Y380945D02*
X368503Y380789D01*
X367402Y380333D01*
X366456Y379607D01*
X365730Y378661D01*
X365274Y377560D01*
X365118Y376378D01*
X365274Y375196D01*
X365730Y374095D01*
X366456Y373149D01*
X380235Y359369D01*
X380236Y359369D01*
X381181Y358644D01*
X382283Y358187D01*
X383465Y358032D01*
X397786D01*
Y353779D01*
X395748D01*
X394566Y353624D01*
X393465Y353167D01*
X392519Y352442D01*
X391793Y351496D01*
X391337Y350395D01*
X391181Y349213D01*
X391337Y348031D01*
X391793Y346929D01*
X392519Y345984D01*
X393465Y345258D01*
X394566Y344802D01*
X395748Y344646D01*
X397786D01*
Y322047D01*
X397973Y321595D01*
X398425Y321408D01*
X409449D01*
X409901Y321595D01*
X410088Y322047D01*
Y327536D01*
X444488D01*
X444488Y327536D01*
X444949Y327628D01*
X445340Y327889D01*
X446069Y328618D01*
X465861D01*
X466307Y328321D01*
X466929Y328197D01*
X467551Y328321D01*
X468079Y328673D01*
X468431Y329201D01*
X468555Y329823D01*
X468431Y330445D01*
X468079Y330972D01*
X467551Y331325D01*
X466929Y331448D01*
X466307Y331325D01*
X465861Y331027D01*
X454643D01*
X454452Y331489D01*
X456395Y333432D01*
X456921Y333537D01*
X457448Y333889D01*
X457801Y334417D01*
X457924Y335039D01*
X457801Y335661D01*
X457513Y336091D01*
X457628Y336441D01*
X457735Y336591D01*
X464680D01*
X465126Y336293D01*
X465748Y336170D01*
X466370Y336293D01*
X466898Y336646D01*
X467250Y337173D01*
X467374Y337795D01*
X467250Y338417D01*
X466898Y338945D01*
X466370Y339297D01*
X465748Y339421D01*
X465126Y339297D01*
X464680Y339000D01*
X455512D01*
X455512Y339000D01*
X455051Y338908D01*
X454660Y338647D01*
X454660Y338647D01*
X452257Y336244D01*
X444375D01*
X443929Y336541D01*
X443307Y336665D01*
X442685Y336541D01*
X442158Y336189D01*
X441805Y335662D01*
X441681Y335039D01*
X441805Y334417D01*
X442158Y333890D01*
X442685Y333537D01*
X442858Y333503D01*
X442880Y333043D01*
X442871Y332991D01*
X442354Y332646D01*
X442002Y332118D01*
X441878Y331496D01*
X442002Y330874D01*
X442289Y330444D01*
X442174Y330093D01*
X442068Y329944D01*
X410088D01*
Y347859D01*
X410159Y348031D01*
X410315Y349213D01*
X410159Y350395D01*
X410088Y350566D01*
Y367323D01*
X409901Y367775D01*
X409449Y367962D01*
X398425D01*
X397973Y367775D01*
X397786Y367323D01*
Y367165D01*
X385356D01*
X372914Y379607D01*
X371968Y380333D01*
X370867Y380789D01*
X369685Y380945D01*
D02*
G37*
G36*
X210846Y334615D02*
X209870Y334486D01*
X208960Y334109D01*
X208179Y333510D01*
X207579Y332729D01*
X207203Y331819D01*
X207074Y330842D01*
X207203Y329866D01*
X207579Y328956D01*
X208179Y328175D01*
X208960Y327575D01*
X209870Y327199D01*
X210846Y327070D01*
X211823Y327199D01*
X212733Y327575D01*
X213514Y328175D01*
X214113Y328956D01*
X214490Y329866D01*
X214619Y330842D01*
X214490Y331819D01*
X214113Y332729D01*
X213514Y333510D01*
X212733Y334109D01*
X211823Y334486D01*
X210846Y334615D01*
D02*
G37*
G36*
X191161D02*
X190185Y334486D01*
X189275Y334109D01*
X188494Y333510D01*
X187894Y332729D01*
X187517Y331819D01*
X187389Y330842D01*
X187517Y329866D01*
X187894Y328956D01*
X188494Y328175D01*
X189275Y327575D01*
X190185Y327199D01*
X191161Y327070D01*
X192138Y327199D01*
X193048Y327575D01*
X193829Y328175D01*
X194428Y328956D01*
X194805Y329866D01*
X194934Y330842D01*
X194805Y331819D01*
X194428Y332729D01*
X193829Y333510D01*
X193048Y334109D01*
X192138Y334486D01*
X191161Y334615D01*
D02*
G37*
G36*
X171476D02*
X170500Y334486D01*
X169590Y334109D01*
X168809Y333510D01*
X168209Y332729D01*
X167833Y331819D01*
X167704Y330842D01*
X167833Y329866D01*
X168209Y328956D01*
X168809Y328175D01*
X169590Y327575D01*
X170500Y327199D01*
X171476Y327070D01*
X172453Y327199D01*
X173363Y327575D01*
X174144Y328175D01*
X174743Y328956D01*
X175120Y329866D01*
X175249Y330842D01*
X175120Y331819D01*
X174743Y332729D01*
X174144Y333510D01*
X173363Y334109D01*
X172453Y334486D01*
X171476Y334615D01*
D02*
G37*
G36*
X151791D02*
X150815Y334486D01*
X149905Y334109D01*
X149124Y333510D01*
X148524Y332729D01*
X148147Y331819D01*
X148019Y330842D01*
X148147Y329866D01*
X148524Y328956D01*
X149124Y328175D01*
X149905Y327575D01*
X150815Y327199D01*
X151791Y327070D01*
X152768Y327199D01*
X153677Y327575D01*
X154459Y328175D01*
X155058Y328956D01*
X155435Y329866D01*
X155564Y330842D01*
X155435Y331819D01*
X155058Y332729D01*
X154459Y333510D01*
X153677Y334109D01*
X152768Y334486D01*
X151791Y334615D01*
D02*
G37*
G36*
X132106D02*
X131130Y334486D01*
X130220Y334109D01*
X129439Y333510D01*
X128839Y332729D01*
X128462Y331819D01*
X128334Y330842D01*
X128462Y329866D01*
X128839Y328956D01*
X129439Y328175D01*
X130220Y327575D01*
X131130Y327199D01*
X132106Y327070D01*
X133083Y327199D01*
X133993Y327575D01*
X134774Y328175D01*
X135373Y328956D01*
X135750Y329866D01*
X135879Y330842D01*
X135750Y331819D01*
X135373Y332729D01*
X134774Y333510D01*
X133993Y334109D01*
X133083Y334486D01*
X132106Y334615D01*
D02*
G37*
G36*
X210846Y307123D02*
X209870Y306994D01*
X208960Y306617D01*
X208179Y306018D01*
X207579Y305237D01*
X207203Y304327D01*
X207074Y303350D01*
X207203Y302374D01*
X207579Y301464D01*
X208179Y300683D01*
X208960Y300083D01*
X209870Y299707D01*
X210846Y299578D01*
X211823Y299707D01*
X212733Y300083D01*
X213514Y300683D01*
X214113Y301464D01*
X214490Y302374D01*
X214619Y303350D01*
X214490Y304327D01*
X214113Y305237D01*
X213514Y306018D01*
X212733Y306617D01*
X211823Y306994D01*
X210846Y307123D01*
D02*
G37*
G36*
X191161D02*
X190185Y306994D01*
X189275Y306617D01*
X188494Y306018D01*
X187894Y305237D01*
X187517Y304327D01*
X187389Y303350D01*
X187517Y302374D01*
X187894Y301464D01*
X188494Y300683D01*
X189275Y300083D01*
X190185Y299707D01*
X191161Y299578D01*
X192138Y299707D01*
X193048Y300083D01*
X193829Y300683D01*
X194428Y301464D01*
X194805Y302374D01*
X194934Y303350D01*
X194805Y304327D01*
X194428Y305237D01*
X193829Y306018D01*
X193048Y306617D01*
X192138Y306994D01*
X191161Y307123D01*
D02*
G37*
G36*
X171476D02*
X170500Y306994D01*
X169590Y306617D01*
X168809Y306018D01*
X168209Y305237D01*
X167833Y304327D01*
X167704Y303350D01*
X167833Y302374D01*
X168209Y301464D01*
X168809Y300683D01*
X169590Y300083D01*
X170500Y299707D01*
X171476Y299578D01*
X172453Y299707D01*
X173363Y300083D01*
X174144Y300683D01*
X174743Y301464D01*
X175120Y302374D01*
X175249Y303350D01*
X175120Y304327D01*
X174743Y305237D01*
X174144Y306018D01*
X173363Y306617D01*
X172453Y306994D01*
X171476Y307123D01*
D02*
G37*
G36*
X151791D02*
X150815Y306994D01*
X149905Y306617D01*
X149124Y306018D01*
X148524Y305237D01*
X148147Y304327D01*
X148019Y303350D01*
X148147Y302374D01*
X148524Y301464D01*
X149124Y300683D01*
X149905Y300083D01*
X150815Y299707D01*
X151791Y299578D01*
X152768Y299707D01*
X153677Y300083D01*
X154459Y300683D01*
X155058Y301464D01*
X155435Y302374D01*
X155564Y303350D01*
X155435Y304327D01*
X155058Y305237D01*
X154459Y306018D01*
X153677Y306617D01*
X152768Y306994D01*
X151791Y307123D01*
D02*
G37*
G36*
X132106D02*
X131130Y306994D01*
X130220Y306617D01*
X129439Y306018D01*
X128839Y305237D01*
X128462Y304327D01*
X128334Y303350D01*
X128462Y302374D01*
X128839Y301464D01*
X129439Y300683D01*
X130220Y300083D01*
X131130Y299707D01*
X132106Y299578D01*
X133083Y299707D01*
X133993Y300083D01*
X134774Y300683D01*
X135373Y301464D01*
X135750Y302374D01*
X135879Y303350D01*
X135750Y304327D01*
X135373Y305237D01*
X134774Y306018D01*
X133993Y306617D01*
X133083Y306994D01*
X132106Y307123D01*
D02*
G37*
G36*
X659842Y286843D02*
X658866Y286715D01*
X657956Y286338D01*
X657175Y285738D01*
X656575Y284957D01*
X656199Y284047D01*
X656070Y283071D01*
X656199Y282095D01*
X656575Y281185D01*
X657175Y280403D01*
X657956Y279804D01*
X658866Y279427D01*
X659842Y279298D01*
X660819Y279427D01*
X661729Y279804D01*
X662510Y280403D01*
X663109Y281185D01*
X663486Y282095D01*
X663615Y283071D01*
X663486Y284047D01*
X663109Y284957D01*
X662510Y285738D01*
X661729Y286338D01*
X660819Y286715D01*
X659842Y286843D01*
D02*
G37*
G36*
X632415D02*
X631438Y286715D01*
X630528Y286338D01*
X629747Y285738D01*
X629148Y284957D01*
X628771Y284047D01*
X628642Y283071D01*
X628771Y282095D01*
X629148Y281185D01*
X629747Y280403D01*
X630528Y279804D01*
X631438Y279427D01*
X632415Y279298D01*
X633391Y279427D01*
X634301Y279804D01*
X635082Y280403D01*
X635682Y281185D01*
X636059Y282095D01*
X636187Y283071D01*
X636059Y284047D01*
X635682Y284957D01*
X635082Y285738D01*
X634301Y286338D01*
X633391Y286715D01*
X632415Y286843D01*
D02*
G37*
G36*
X604987D02*
X604010Y286715D01*
X603101Y286338D01*
X602319Y285738D01*
X601720Y284957D01*
X601343Y284047D01*
X601215Y283071D01*
X601343Y282095D01*
X601720Y281185D01*
X602319Y280403D01*
X603101Y279804D01*
X604010Y279427D01*
X604987Y279298D01*
X605963Y279427D01*
X606873Y279804D01*
X607654Y280403D01*
X608254Y281185D01*
X608631Y282095D01*
X608759Y283071D01*
X608631Y284047D01*
X608254Y284957D01*
X607654Y285738D01*
X606873Y286338D01*
X605963Y286715D01*
X604987Y286843D01*
D02*
G37*
G36*
X577559D02*
X576583Y286715D01*
X575673Y286338D01*
X574892Y285738D01*
X574292Y284957D01*
X573915Y284047D01*
X573787Y283071D01*
X573915Y282095D01*
X574292Y281185D01*
X574892Y280403D01*
X575673Y279804D01*
X576583Y279427D01*
X577559Y279298D01*
X578535Y279427D01*
X579445Y279804D01*
X580227Y280403D01*
X580826Y281185D01*
X581203Y282095D01*
X581331Y283071D01*
X581203Y284047D01*
X580826Y284957D01*
X580227Y285738D01*
X579445Y286338D01*
X578535Y286715D01*
X577559Y286843D01*
D02*
G37*
G36*
X659842Y277001D02*
X658866Y276872D01*
X657956Y276495D01*
X657175Y275896D01*
X656575Y275115D01*
X656199Y274205D01*
X656070Y273228D01*
X656199Y272252D01*
X656575Y271342D01*
X657175Y270561D01*
X657956Y269961D01*
X658866Y269584D01*
X659842Y269456D01*
X660819Y269584D01*
X661729Y269961D01*
X662510Y270561D01*
X663109Y271342D01*
X663486Y272252D01*
X663615Y273228D01*
X663486Y274205D01*
X663109Y275115D01*
X662510Y275896D01*
X661729Y276495D01*
X660819Y276872D01*
X659842Y277001D01*
D02*
G37*
G36*
X632415D02*
X631438Y276872D01*
X630528Y276495D01*
X629747Y275896D01*
X629148Y275115D01*
X628771Y274205D01*
X628642Y273228D01*
X628771Y272252D01*
X629148Y271342D01*
X629747Y270561D01*
X630528Y269961D01*
X631438Y269584D01*
X632415Y269456D01*
X633391Y269584D01*
X634301Y269961D01*
X635082Y270561D01*
X635682Y271342D01*
X636059Y272252D01*
X636187Y273228D01*
X636059Y274205D01*
X635682Y275115D01*
X635082Y275896D01*
X634301Y276495D01*
X633391Y276872D01*
X632415Y277001D01*
D02*
G37*
G36*
X604987D02*
X604010Y276872D01*
X603101Y276495D01*
X602319Y275896D01*
X601720Y275115D01*
X601343Y274205D01*
X601215Y273228D01*
X601343Y272252D01*
X601720Y271342D01*
X602319Y270561D01*
X603101Y269961D01*
X604010Y269584D01*
X604987Y269456D01*
X605963Y269584D01*
X606873Y269961D01*
X607654Y270561D01*
X608254Y271342D01*
X608631Y272252D01*
X608759Y273228D01*
X608631Y274205D01*
X608254Y275115D01*
X607654Y275896D01*
X606873Y276495D01*
X605963Y276872D01*
X604987Y277001D01*
D02*
G37*
G36*
X577559D02*
X576583Y276872D01*
X575673Y276495D01*
X574892Y275896D01*
X574292Y275115D01*
X573915Y274205D01*
X573787Y273228D01*
X573915Y272252D01*
X574292Y271342D01*
X574892Y270561D01*
X575673Y269961D01*
X576583Y269584D01*
X577559Y269456D01*
X578535Y269584D01*
X579445Y269961D01*
X580227Y270561D01*
X580826Y271342D01*
X581203Y272252D01*
X581331Y273228D01*
X581203Y274205D01*
X580826Y275115D01*
X580227Y275896D01*
X579445Y276495D01*
X578535Y276872D01*
X577559Y277001D01*
D02*
G37*
G36*
X550984Y281133D02*
X549749Y281011D01*
X548562Y280651D01*
X547468Y280066D01*
X546509Y279279D01*
X545721Y278320D01*
X545136Y277225D01*
X544776Y276038D01*
X544655Y274803D01*
X544776Y273568D01*
X545136Y272381D01*
X545721Y271287D01*
X546509Y270327D01*
X547468Y269540D01*
X548562Y268955D01*
X549749Y268595D01*
X550984Y268474D01*
X552219Y268595D01*
X553406Y268955D01*
X554501Y269540D01*
X555460Y270327D01*
X556247Y271287D01*
X556832Y272381D01*
X557192Y273568D01*
X557314Y274803D01*
X557192Y276038D01*
X556832Y277225D01*
X556247Y278320D01*
X555460Y279279D01*
X554501Y280066D01*
X553406Y280651D01*
X552219Y281011D01*
X550984Y281133D01*
D02*
G37*
G36*
X474606D02*
X473371Y281011D01*
X472184Y280651D01*
X471090Y280066D01*
X470130Y279279D01*
X469343Y278320D01*
X468758Y277225D01*
X468398Y276038D01*
X468277Y274803D01*
X468398Y273568D01*
X468758Y272381D01*
X469343Y271287D01*
X470130Y270327D01*
X471090Y269540D01*
X472184Y268955D01*
X473371Y268595D01*
X474606Y268474D01*
X475841Y268595D01*
X477029Y268955D01*
X478123Y269540D01*
X479082Y270327D01*
X479869Y271287D01*
X480454Y272381D01*
X480814Y273568D01*
X480936Y274803D01*
X480814Y276038D01*
X480454Y277225D01*
X479869Y278320D01*
X479082Y279279D01*
X478123Y280066D01*
X477029Y280651D01*
X475841Y281011D01*
X474606Y281133D01*
D02*
G37*
G36*
X577559Y267158D02*
X576583Y267030D01*
X575673Y266653D01*
X574892Y266053D01*
X574292Y265272D01*
X574010Y264590D01*
X567750D01*
Y265059D01*
X564010D01*
Y261516D01*
X567750D01*
Y262182D01*
X574010D01*
X574292Y261500D01*
X574892Y260718D01*
X575673Y260119D01*
X576583Y259742D01*
X577559Y259613D01*
X578535Y259742D01*
X579445Y260119D01*
X580227Y260718D01*
X580826Y261500D01*
X581203Y262409D01*
X581331Y263386D01*
X581203Y264362D01*
X580826Y265272D01*
X580227Y266053D01*
X579445Y266653D01*
X578535Y267030D01*
X577559Y267158D01*
D02*
G37*
G36*
X659842D02*
X658866Y267030D01*
X657956Y266653D01*
X657175Y266053D01*
X656575Y265272D01*
X656293Y264590D01*
X650164D01*
Y265059D01*
X646424D01*
Y261516D01*
X650164D01*
Y262182D01*
X656293D01*
X656575Y261500D01*
X657175Y260718D01*
X657956Y260119D01*
X658866Y259742D01*
X659842Y259613D01*
X660819Y259742D01*
X661729Y260119D01*
X662510Y260718D01*
X663109Y261500D01*
X663486Y262409D01*
X663615Y263386D01*
X663486Y264362D01*
X663109Y265272D01*
X662510Y266053D01*
X661729Y266653D01*
X660819Y267030D01*
X659842Y267158D01*
D02*
G37*
G36*
X632415D02*
X631438Y267030D01*
X630528Y266653D01*
X629747Y266053D01*
X629148Y265272D01*
X628865Y264590D01*
X622693D01*
Y265059D01*
X618953D01*
Y261516D01*
X622693D01*
Y262182D01*
X628865D01*
X629148Y261500D01*
X629747Y260718D01*
X630528Y260119D01*
X631438Y259742D01*
X632415Y259613D01*
X633391Y259742D01*
X634301Y260119D01*
X635082Y260718D01*
X635682Y261500D01*
X636059Y262409D01*
X636187Y263386D01*
X636059Y264362D01*
X635682Y265272D01*
X635082Y266053D01*
X634301Y266653D01*
X633391Y267030D01*
X632415Y267158D01*
D02*
G37*
G36*
X604987D02*
X604010Y267030D01*
X603101Y266653D01*
X602319Y266053D01*
X601720Y265272D01*
X601437Y264590D01*
X595221D01*
Y265059D01*
X591481D01*
Y261516D01*
X595221D01*
Y262182D01*
X601437D01*
X601720Y261500D01*
X602319Y260718D01*
X603101Y260119D01*
X604010Y259742D01*
X604987Y259613D01*
X605963Y259742D01*
X606873Y260119D01*
X607654Y260718D01*
X608254Y261500D01*
X608631Y262409D01*
X608759Y263386D01*
X608631Y264362D01*
X608254Y265272D01*
X607654Y266053D01*
X606873Y266653D01*
X605963Y267030D01*
X604987Y267158D01*
D02*
G37*
G36*
X524016Y318749D02*
X490158D01*
X489706Y318562D01*
X489518Y318110D01*
X489518Y261269D01*
X484987D01*
X484874Y261345D01*
X484252Y261468D01*
X483630Y261345D01*
X483517Y261269D01*
X477113D01*
X477000Y261345D01*
X476378Y261468D01*
X475756Y261345D01*
X475643Y261269D01*
X469239D01*
X469126Y261345D01*
X468504Y261468D01*
X467882Y261345D01*
X467769Y261269D01*
X461365D01*
X461252Y261345D01*
X460630Y261468D01*
X460008Y261345D01*
X459895Y261269D01*
X453491D01*
X453378Y261345D01*
X452756Y261468D01*
X452134Y261345D01*
X452021Y261269D01*
X447883D01*
X447883Y316929D01*
X447696Y317381D01*
X447244Y317568D01*
X409802D01*
X409350Y317381D01*
X408997Y317028D01*
X408810Y316576D01*
X408810Y255906D01*
Y233710D01*
X364961D01*
X364509Y233523D01*
X364321Y233071D01*
Y211811D01*
X364509Y211359D01*
X364961Y211172D01*
X544488D01*
X544940Y211359D01*
X556958Y223376D01*
X665354D01*
X665806Y223564D01*
X665993Y224016D01*
Y257087D01*
X665806Y257539D01*
X665354Y257726D01*
X524655D01*
Y318110D01*
X524468Y318562D01*
X524016Y318749D01*
D02*
G37*
G36*
X297244Y278198D02*
X228740D01*
X228288Y278011D01*
X228101Y277559D01*
Y245669D01*
X228288Y245217D01*
X228740Y245030D01*
X297244D01*
X297696Y245217D01*
X297883Y245669D01*
Y277559D01*
X297696Y278011D01*
X297244Y278198D01*
D02*
G37*
G36*
X209055D02*
X145276D01*
X144824Y278011D01*
X144636Y277559D01*
Y245669D01*
X144824Y245217D01*
X145276Y245030D01*
X209055D01*
X209507Y245217D01*
X209694Y245669D01*
Y277559D01*
X209507Y278011D01*
X209055Y278198D01*
D02*
G37*
G36*
X287595Y244324D02*
X286618Y244195D01*
X285708Y243818D01*
X284927Y243219D01*
X284328Y242437D01*
X283951Y241528D01*
X283822Y240551D01*
X283951Y239575D01*
X284328Y238665D01*
X284927Y237884D01*
X285708Y237284D01*
X286618Y236907D01*
X287595Y236779D01*
X288571Y236907D01*
X289481Y237284D01*
X290262Y237884D01*
X290862Y238665D01*
X291238Y239575D01*
X291367Y240551D01*
X291238Y241528D01*
X290862Y242437D01*
X290262Y243219D01*
X289481Y243818D01*
X288571Y244195D01*
X287595Y244324D01*
D02*
G37*
G36*
X150327Y244324D02*
X149350Y244195D01*
X148441Y243818D01*
X147659Y243219D01*
X147060Y242437D01*
X146683Y241528D01*
X146554Y240551D01*
X146683Y239575D01*
X147060Y238665D01*
X147659Y237884D01*
X148441Y237284D01*
X149350Y236907D01*
X150327Y236779D01*
X151303Y236907D01*
X152213Y237284D01*
X152994Y237884D01*
X153594Y238665D01*
X153971Y239575D01*
X154099Y240551D01*
X153971Y241528D01*
X153594Y242437D01*
X152994Y243219D01*
X152213Y243818D01*
X151303Y244195D01*
X150327Y244324D01*
D02*
G37*
G36*
X331496Y244933D02*
X330874Y244809D01*
X330346Y244457D01*
X329994Y243929D01*
X329870Y243307D01*
X329994Y242685D01*
X330091Y242540D01*
Y227559D01*
X330198Y227021D01*
X330503Y226566D01*
X331928Y225140D01*
X331963Y224968D01*
X332315Y224441D01*
X332842Y224089D01*
X333465Y223965D01*
X334087Y224089D01*
X334614Y224441D01*
X334966Y224968D01*
X335090Y225590D01*
X334966Y226213D01*
X334614Y226740D01*
X334087Y227093D01*
X333915Y227127D01*
X332901Y228141D01*
Y242540D01*
X332998Y242685D01*
X333122Y243307D01*
X332998Y243929D01*
X332646Y244457D01*
X332118Y244809D01*
X331496Y244933D01*
D02*
G37*
%LPD*%
G36*
X524016Y257087D02*
X665354D01*
Y224016D01*
X556693D01*
X544488Y211811D01*
X364961D01*
Y233071D01*
X409449D01*
Y233465D01*
Y255906D01*
X409449Y316576D01*
X409802Y316929D01*
X447244D01*
X447244Y260630D01*
X490158Y260630D01*
X490158Y318110D01*
X524016D01*
Y257087D01*
D02*
G37*
%LPC*%
G36*
X497835Y281133D02*
X496600Y281011D01*
X495412Y280651D01*
X494318Y280066D01*
X493359Y279279D01*
X492572Y278320D01*
X491987Y277225D01*
X491627Y276038D01*
X491505Y274803D01*
X491627Y273568D01*
X491987Y272381D01*
X492572Y271287D01*
X493359Y270327D01*
X494318Y269540D01*
X495412Y268955D01*
X496600Y268595D01*
X497835Y268474D01*
X499069Y268595D01*
X500257Y268955D01*
X501351Y269540D01*
X502310Y270327D01*
X503098Y271287D01*
X503683Y272381D01*
X504043Y273568D01*
X504164Y274803D01*
X504043Y276038D01*
X503683Y277225D01*
X503098Y278320D01*
X502310Y279279D01*
X501351Y280066D01*
X500257Y280651D01*
X499069Y281011D01*
X497835Y281133D01*
D02*
G37*
G36*
X421457D02*
X420222Y281011D01*
X419034Y280651D01*
X417940Y280066D01*
X416981Y279279D01*
X416194Y278320D01*
X415609Y277225D01*
X415249Y276038D01*
X415127Y274803D01*
X415249Y273568D01*
X415609Y272381D01*
X416194Y271287D01*
X416981Y270327D01*
X417940Y269540D01*
X419034Y268955D01*
X420222Y268595D01*
X421457Y268474D01*
X422692Y268595D01*
X423879Y268955D01*
X424973Y269540D01*
X425933Y270327D01*
X426720Y271287D01*
X427305Y272381D01*
X427665Y273568D01*
X427786Y274803D01*
X427665Y276038D01*
X427305Y277225D01*
X426720Y278320D01*
X425933Y279279D01*
X424973Y280066D01*
X423879Y280651D01*
X422692Y281011D01*
X421457Y281133D01*
D02*
G37*
%LPD*%
D13*
X558661Y336221D02*
X570866D01*
X558661Y344882D02*
X653150D01*
X558661Y341732D02*
X625984D01*
X558661Y338976D02*
X598425D01*
X616142Y350787D02*
X620472D01*
X614567Y352362D02*
X616142Y350787D01*
X549213Y350394D02*
X566142D01*
X588583Y354331D02*
X592520Y350394D01*
X580709Y354331D02*
X588583D01*
X608268Y352362D02*
X614567D01*
X361988Y464173D02*
X362244D01*
X357873Y366535D02*
X361988Y370650D01*
X443307Y335039D02*
X452756D01*
X455512Y337795D01*
X465748D01*
X403543Y328740D02*
X444488D01*
X445571Y329823D01*
X466929D01*
X443504Y331496D02*
X452756D01*
X456299Y335039D01*
X393307Y440158D02*
X398661Y445512D01*
Y451181D01*
X378661Y444410D02*
Y451181D01*
X388661Y444961D02*
Y451181D01*
X372441Y434252D02*
X381496Y443307D01*
X387008D01*
X388661Y444961D01*
X382283Y440158D02*
X393307D01*
X376378Y434252D02*
X382283Y440158D01*
X368504Y434252D02*
X378661Y444410D01*
X380709Y434252D02*
X383858Y437402D01*
X400787D01*
X408661Y445276D01*
Y451181D01*
X385039Y434252D02*
X407874D01*
X418661Y445039D01*
Y451181D01*
X386221Y431496D02*
X420079D01*
X428661Y440079D01*
Y451181D01*
X386221Y427953D02*
X387402Y429134D01*
X425197D01*
X438661Y442598D01*
Y451181D01*
X391339Y409449D02*
Y420866D01*
X394488Y424016D01*
X418898D01*
X420492Y422421D01*
X365749Y392913D02*
Y418504D01*
Y392913D02*
X371654Y387008D01*
Y387008D02*
Y387008D01*
X398425Y379528D02*
X464173D01*
X474567Y389921D01*
Y397504D01*
Y424996D01*
X481496Y377165D02*
X494252Y389921D01*
X400787Y377165D02*
X481496D01*
X494252Y389921D02*
Y397504D01*
Y424996D01*
X402755Y374803D02*
X498818D01*
X513937Y389921D01*
Y397504D01*
Y424996D01*
X396457Y381890D02*
X437795D01*
X451181Y395276D01*
Y425197D01*
X461811Y435827D01*
X522791D01*
X533622Y424996D01*
X394488Y384252D02*
X432677D01*
X446063Y397638D01*
Y427953D01*
X457874Y439764D01*
X530315D01*
X538583Y431496D01*
Y402465D02*
Y431496D01*
X533622Y397504D02*
X538583Y402465D01*
X361988Y370650D02*
Y464173D01*
X358661Y438189D02*
X359842Y437008D01*
X356693Y436221D02*
X357874Y435039D01*
X255772Y236221D02*
X260102Y240551D01*
X177819Y240551D02*
X182150Y236221D01*
X213386D01*
X214567Y237402D01*
X223228Y236221D02*
X255772D01*
X222047Y237402D02*
X223228Y236221D01*
X224410Y242913D02*
X226772Y240551D01*
X232610D01*
X205311Y240551D02*
X210236D01*
X212205Y242520D01*
Y285433D01*
X350000Y400787D02*
Y427165D01*
X348819Y428346D02*
X350000Y427165D01*
X214567Y237402D02*
Y284646D01*
X350787Y430314D02*
X351969Y429132D01*
Y400000D02*
Y429132D01*
X214567Y284646D02*
X256299Y326378D01*
X278346D01*
X351969Y400000D01*
X216929Y239764D02*
Y283858D01*
X257087Y324016D01*
X278740D01*
X353937Y399213D01*
Y431102D01*
X352756Y432283D02*
X353937Y431102D01*
X219685Y239763D02*
Y283464D01*
X257874Y321654D01*
X279134D01*
X355906Y398425D01*
X212205Y285433D02*
X255512Y328740D01*
X277953D01*
X350000Y400787D01*
X222047Y237402D02*
Y282677D01*
X258661Y319291D01*
X279528D01*
X357874Y397638D01*
Y435039D01*
X355906Y398425D02*
Y433071D01*
X354724Y434252D02*
X355906Y433071D01*
X359842Y396850D02*
Y437008D01*
X279921Y316929D02*
X359842Y396850D01*
X259842Y316929D02*
X279921D01*
X224410Y281496D02*
X259842Y316929D01*
X224410Y242913D02*
Y281496D01*
X341732Y426377D02*
X341732Y426378D01*
X290551D02*
X341732D01*
X290551Y426378D02*
X290551Y426378D01*
X289370Y418504D02*
X340158D01*
X281693Y426181D02*
X289370Y418504D01*
X577559Y263386D02*
X577559Y263386D01*
X565880Y263386D02*
X577559D01*
X593449Y263386D02*
X604987D01*
X620921D02*
X632415D01*
X648392D02*
X659842D01*
X120866Y339764D02*
X155118Y374016D01*
Y393307D01*
X365748Y428740D02*
X369685Y424803D01*
X365748Y428740D02*
Y437008D01*
X372244Y443504D01*
Y464173D01*
X371654Y387008D02*
X405512D01*
X286221Y414173D02*
X336221D01*
X155118Y393307D02*
X186614Y424803D01*
X275590D01*
X286221Y414173D01*
X369685Y406693D02*
Y424803D01*
X378346Y390158D02*
X420472D01*
X372441Y396063D02*
X378346Y390158D01*
X428740Y410630D02*
X434646D01*
X371654Y400787D02*
X418898D01*
X428740Y410630D01*
D20*
X565880Y266634D02*
D03*
Y263288D02*
D03*
X593351Y266634D02*
D03*
Y263288D02*
D03*
X620823Y266634D02*
D03*
Y263288D02*
D03*
X648294Y266634D02*
D03*
Y263288D02*
D03*
D24*
X90565Y405905D02*
D03*
Y427953D02*
D03*
D78*
X331496Y227559D02*
X333465Y225590D01*
X331496Y227559D02*
Y243307D01*
D93*
X577559Y302756D02*
D03*
X604987D02*
D03*
X632415D02*
D03*
X659842D02*
D03*
X150327Y220866D02*
D03*
X177819D02*
D03*
X205311D02*
D03*
X232610Y220866D02*
D03*
X260102D02*
D03*
X287595D02*
D03*
D94*
X577559Y292913D02*
D03*
Y273228D02*
D03*
Y283071D02*
D03*
Y253543D02*
D03*
Y263386D02*
D03*
Y243701D02*
D03*
X604987Y292913D02*
D03*
Y273228D02*
D03*
Y283071D02*
D03*
Y253543D02*
D03*
Y263386D02*
D03*
Y243701D02*
D03*
X132106Y330842D02*
D03*
X191161D02*
D03*
X201004D02*
D03*
X171476D02*
D03*
X181319D02*
D03*
X161634D02*
D03*
X151791D02*
D03*
X141949D02*
D03*
X210846D02*
D03*
X132106Y303350D02*
D03*
X191161D02*
D03*
X201004D02*
D03*
X171476D02*
D03*
X181319D02*
D03*
X161634D02*
D03*
X151791D02*
D03*
X141949D02*
D03*
X210846D02*
D03*
X632415Y292913D02*
D03*
Y273228D02*
D03*
Y283071D02*
D03*
Y253543D02*
D03*
Y263386D02*
D03*
Y243701D02*
D03*
X659842Y292913D02*
D03*
Y273228D02*
D03*
Y283071D02*
D03*
Y253543D02*
D03*
Y263386D02*
D03*
Y243701D02*
D03*
X553307Y424996D02*
D03*
X494252D02*
D03*
X484410D02*
D03*
X513937D02*
D03*
X504095D02*
D03*
X523779D02*
D03*
X533622D02*
D03*
X543465D02*
D03*
X474567D02*
D03*
X553307Y397504D02*
D03*
X494252D02*
D03*
X484410D02*
D03*
X513937D02*
D03*
X504095D02*
D03*
X523779D02*
D03*
X533622D02*
D03*
X543465D02*
D03*
X474567D02*
D03*
X150327Y230709D02*
D03*
Y250394D02*
D03*
Y240551D02*
D03*
Y260236D02*
D03*
X177819Y230709D02*
D03*
Y250394D02*
D03*
Y240551D02*
D03*
Y260236D02*
D03*
X205311Y230709D02*
D03*
Y250394D02*
D03*
Y240551D02*
D03*
Y260236D02*
D03*
X232610Y230709D02*
D03*
Y250394D02*
D03*
Y240551D02*
D03*
Y260236D02*
D03*
X356693Y451181D02*
D03*
X366693D02*
D03*
X260102Y230709D02*
D03*
Y250394D02*
D03*
Y240551D02*
D03*
Y260236D02*
D03*
X287595Y230709D02*
D03*
Y250394D02*
D03*
Y240551D02*
D03*
Y260236D02*
D03*
X372244Y464173D02*
D03*
X352244D02*
D03*
X342244D02*
D03*
X332244D02*
D03*
X362244D02*
D03*
X438661Y451181D02*
D03*
X418661D02*
D03*
X388661D02*
D03*
X398661D02*
D03*
X408661D02*
D03*
X428661D02*
D03*
X385748Y349213D02*
D03*
X405748D02*
D03*
X435748D02*
D03*
X425748D02*
D03*
X415748D02*
D03*
X395748D02*
D03*
D95*
X220689Y330842D02*
D03*
Y303350D02*
D03*
X464724Y424996D02*
D03*
Y397504D02*
D03*
X346693Y451181D02*
D03*
X322244Y464173D02*
D03*
X378661Y451181D02*
D03*
X445748Y349213D02*
D03*
D96*
X538583Y298425D02*
D03*
X462205D02*
D03*
D97*
X510236D02*
D03*
X433858D02*
D03*
D98*
X497835Y274803D02*
D03*
X550984D02*
D03*
X421457D02*
D03*
X474606D02*
D03*
D99*
X570866Y336221D02*
D03*
X558661D02*
D03*
X653150Y344882D02*
D03*
X625984Y341732D02*
D03*
X598425Y338976D02*
D03*
X558661D02*
D03*
Y341732D02*
D03*
Y344882D02*
D03*
X620472Y350787D02*
D03*
X566142Y350394D02*
D03*
X549213D02*
D03*
X592520Y350394D02*
D03*
X580709Y354331D02*
D03*
X608268Y352362D02*
D03*
X357873Y366535D02*
D03*
X312598Y383071D02*
D03*
X291339Y394094D02*
D03*
X296063Y392126D02*
D03*
X300394Y390158D02*
D03*
X304724Y388189D02*
D03*
X308661Y385827D02*
D03*
X226378Y393307D02*
D03*
Y401181D02*
D03*
Y409055D02*
D03*
X165354Y373228D02*
D03*
Y381102D02*
D03*
Y389764D02*
D03*
Y397638D02*
D03*
X315748Y371260D02*
D03*
Y378740D02*
D03*
X334252Y433465D02*
D03*
X397244Y413779D02*
D03*
X395669Y368504D02*
D03*
X367323Y358661D02*
D03*
X372441Y344882D02*
D03*
X336614Y349213D02*
D03*
X347244Y350000D02*
D03*
X363779Y346850D02*
D03*
X355906Y344488D02*
D03*
X364173D02*
D03*
X346850Y352362D02*
D03*
X439370Y341732D02*
D03*
X441732D02*
D03*
X444095D02*
D03*
X446457D02*
D03*
Y338976D02*
D03*
X444095D02*
D03*
X441732D02*
D03*
X439370D02*
D03*
X458661Y321260D02*
D03*
Y318898D02*
D03*
Y316535D02*
D03*
Y314173D02*
D03*
X455905D02*
D03*
Y316535D02*
D03*
Y318898D02*
D03*
Y321260D02*
D03*
X443307Y335039D02*
D03*
X465748Y337795D02*
D03*
X403543Y329134D02*
D03*
X466929Y329823D02*
D03*
X443504Y331496D02*
D03*
X456299Y335039D02*
D03*
X337008Y249606D02*
D03*
X339370Y246850D02*
D03*
X337008D02*
D03*
X341732Y249606D02*
D03*
X339370D02*
D03*
X341732Y246850D02*
D03*
X346850Y222047D02*
D03*
Y219685D02*
D03*
Y217323D02*
D03*
Y214961D02*
D03*
X344094Y212598D02*
D03*
Y214961D02*
D03*
Y217323D02*
D03*
Y219685D02*
D03*
Y222047D02*
D03*
X346850Y210236D02*
D03*
Y212598D02*
D03*
X344094Y210236D02*
D03*
X353543Y246063D02*
D03*
X314961Y225984D02*
D03*
X337008Y236614D02*
D03*
Y234252D02*
D03*
Y231890D02*
D03*
Y229528D02*
D03*
X338976Y236614D02*
D03*
Y234252D02*
D03*
Y231890D02*
D03*
Y229528D02*
D03*
X340945Y229528D02*
D03*
Y231890D02*
D03*
Y234252D02*
D03*
Y236614D02*
D03*
X356299Y248425D02*
D03*
Y246063D02*
D03*
X353543Y257874D02*
D03*
Y255512D02*
D03*
Y253150D02*
D03*
Y250787D02*
D03*
Y248425D02*
D03*
X356299Y250787D02*
D03*
Y253150D02*
D03*
Y255512D02*
D03*
Y257874D02*
D03*
X292126Y274409D02*
D03*
X296063Y272441D02*
D03*
Y268373D02*
D03*
X292126Y270341D02*
D03*
Y262205D02*
D03*
X296063Y260236D02*
D03*
Y264304D02*
D03*
X292126Y266273D02*
D03*
Y250000D02*
D03*
X296063Y248031D02*
D03*
X292126Y254068D02*
D03*
X296063Y252100D02*
D03*
Y256168D02*
D03*
X292126Y258137D02*
D03*
X372441Y434252D02*
D03*
X376378D02*
D03*
X368504D02*
D03*
X380709D02*
D03*
X385039D02*
D03*
X386221Y431496D02*
D03*
Y427953D02*
D03*
X391339Y409449D02*
D03*
X420492Y422421D02*
D03*
X365749Y418504D02*
D03*
X394488Y384252D02*
D03*
X396457Y381890D02*
D03*
X398425Y379528D02*
D03*
X400787Y377165D02*
D03*
X402755Y374803D02*
D03*
X348819Y428346D02*
D03*
X350787Y430314D02*
D03*
X352756Y432283D02*
D03*
X354724Y434252D02*
D03*
X356693Y436221D02*
D03*
X358661Y438189D02*
D03*
X333465Y225590D02*
D03*
X216929Y239764D02*
D03*
X219685Y239763D02*
D03*
X572835Y429528D02*
D03*
Y401968D02*
D03*
X573622Y220079D02*
D03*
Y218110D02*
D03*
Y216142D02*
D03*
X600787Y215879D02*
D03*
Y217848D02*
D03*
Y219816D02*
D03*
X656693Y220079D02*
D03*
Y218110D02*
D03*
Y216142D02*
D03*
X629134Y215223D02*
D03*
Y217192D02*
D03*
Y219160D02*
D03*
X341732Y426377D02*
D03*
X290551Y426378D02*
D03*
X340158Y418504D02*
D03*
X281693Y426181D02*
D03*
X403543Y327165D02*
D03*
Y325197D02*
D03*
Y331102D02*
D03*
Y333071D02*
D03*
Y335039D02*
D03*
Y323228D02*
D03*
X120866Y339764D02*
D03*
X405512Y387008D02*
D03*
X370472Y378740D02*
D03*
X368898Y377165D02*
D03*
X367323Y375590D02*
D03*
X372441Y377165D02*
D03*
X370866Y375590D02*
D03*
X368898Y374016D02*
D03*
X336221Y414173D02*
D03*
X235039Y424803D02*
D03*
X369685Y406693D02*
D03*
X420472Y390158D02*
D03*
X372441Y396063D02*
D03*
X434646Y410630D02*
D03*
X371654Y400787D02*
D03*
X385827Y220473D02*
D03*
X389764Y228347D02*
D03*
X393701Y220473D02*
D03*
X397638Y228347D02*
D03*
X401575Y220473D02*
D03*
X405512Y228347D02*
D03*
X409449Y220473D02*
D03*
X413386Y228347D02*
D03*
Y244095D02*
D03*
Y259843D02*
D03*
Y275591D02*
D03*
Y291339D02*
D03*
Y307087D02*
D03*
X417323Y220473D02*
D03*
X421260Y228347D02*
D03*
X417323Y236221D02*
D03*
X421260Y244095D02*
D03*
X417323Y251969D02*
D03*
X421260Y259843D02*
D03*
X417323Y267717D02*
D03*
Y283465D02*
D03*
X421260Y291339D02*
D03*
X417323Y299213D02*
D03*
X421260Y307087D02*
D03*
X425197Y220473D02*
D03*
X429134Y228347D02*
D03*
X425197Y236221D02*
D03*
X429134Y244095D02*
D03*
X425197Y251969D02*
D03*
X429134Y259843D02*
D03*
X425197Y267717D02*
D03*
X429134Y275591D02*
D03*
X425197Y283465D02*
D03*
X433071Y220473D02*
D03*
X437008Y228347D02*
D03*
X433071Y236221D02*
D03*
X437008Y244095D02*
D03*
X433071Y251969D02*
D03*
X437008Y259843D02*
D03*
X433071Y267717D02*
D03*
X437008Y275591D02*
D03*
X433071Y283465D02*
D03*
X440945Y220473D02*
D03*
X444882Y228347D02*
D03*
X440945Y236221D02*
D03*
X444882Y244095D02*
D03*
X440945Y251969D02*
D03*
X444882Y259843D02*
D03*
X440945Y267717D02*
D03*
X444882Y275591D02*
D03*
X440945Y283465D02*
D03*
X448819Y220473D02*
D03*
X452756Y228347D02*
D03*
X448819Y236221D02*
D03*
X452756Y244095D02*
D03*
X448819Y251969D02*
D03*
X452756Y259843D02*
D03*
X456693Y220473D02*
D03*
X460630Y228347D02*
D03*
X456693Y236221D02*
D03*
X460630Y244095D02*
D03*
X456693Y251969D02*
D03*
X460630Y259843D02*
D03*
X464567Y220473D02*
D03*
X468504Y228347D02*
D03*
X464567Y236221D02*
D03*
X468504Y244095D02*
D03*
X464567Y251969D02*
D03*
X468504Y259843D02*
D03*
X472441Y220473D02*
D03*
X476378Y228347D02*
D03*
X472441Y236221D02*
D03*
X476378Y244095D02*
D03*
X472441Y251969D02*
D03*
X476378Y259843D02*
D03*
X480315Y220473D02*
D03*
X484252Y228347D02*
D03*
X480315Y236221D02*
D03*
X484252Y244095D02*
D03*
X480315Y251969D02*
D03*
X484252Y259843D02*
D03*
X488189Y220473D02*
D03*
X492126Y228347D02*
D03*
X488189Y236221D02*
D03*
X492126Y244095D02*
D03*
X488189Y251969D02*
D03*
X492126Y259843D02*
D03*
Y291339D02*
D03*
Y307087D02*
D03*
X496063Y220473D02*
D03*
X500000Y228347D02*
D03*
X496063Y236221D02*
D03*
X500000Y244095D02*
D03*
X496063Y251969D02*
D03*
X500000Y259843D02*
D03*
X496063Y267717D02*
D03*
Y283465D02*
D03*
Y299213D02*
D03*
X503937Y220473D02*
D03*
X507874Y228347D02*
D03*
X503937Y236221D02*
D03*
X507874Y244095D02*
D03*
X503937Y251969D02*
D03*
X507874Y259843D02*
D03*
X503937Y267717D02*
D03*
X507874Y275591D02*
D03*
X503937Y283465D02*
D03*
X511811Y220473D02*
D03*
X515748Y228347D02*
D03*
X511811Y236221D02*
D03*
X515748Y244095D02*
D03*
X511811Y251969D02*
D03*
X515748Y259843D02*
D03*
X511811Y267717D02*
D03*
X515748Y275591D02*
D03*
X511811Y283465D02*
D03*
X519685Y220473D02*
D03*
X523622Y228347D02*
D03*
X519685Y236221D02*
D03*
X523622Y244095D02*
D03*
X519685Y251969D02*
D03*
Y267717D02*
D03*
Y283465D02*
D03*
X527559Y220473D02*
D03*
X531496Y228347D02*
D03*
X527559Y236221D02*
D03*
X531496Y244095D02*
D03*
X527559Y251969D02*
D03*
X535433Y220473D02*
D03*
X539370Y228347D02*
D03*
X535433Y236221D02*
D03*
X539370Y244095D02*
D03*
X535433Y251969D02*
D03*
X543307Y220473D02*
D03*
X547244Y228347D02*
D03*
X543307Y236221D02*
D03*
X547244Y244095D02*
D03*
X543307Y251969D02*
D03*
X551181Y220473D02*
D03*
X555118Y228347D02*
D03*
X551181Y236221D02*
D03*
X555118Y244095D02*
D03*
X551181Y251969D02*
D03*
X562992Y228347D02*
D03*
X559055Y236221D02*
D03*
X562992Y244095D02*
D03*
X559055Y251969D02*
D03*
X570866Y228347D02*
D03*
X566929Y236221D02*
D03*
X570866Y244095D02*
D03*
X566929Y251969D02*
D03*
X574803Y236221D02*
D03*
X586615Y228347D02*
D03*
X582678Y236221D02*
D03*
X586615Y244095D02*
D03*
X582678Y251969D02*
D03*
X594488Y228347D02*
D03*
X590552Y236221D02*
D03*
X594488Y244095D02*
D03*
X590552Y251969D02*
D03*
X598425Y236221D02*
D03*
Y251969D02*
D03*
X610237Y228347D02*
D03*
X606299Y236221D02*
D03*
X610237Y244095D02*
D03*
X618111Y228347D02*
D03*
X614174Y236221D02*
D03*
X618111Y244095D02*
D03*
X614174Y251969D02*
D03*
X625985Y228347D02*
D03*
X622048Y236221D02*
D03*
X625985Y244095D02*
D03*
X622048Y251969D02*
D03*
X629922Y236221D02*
D03*
X641733Y228347D02*
D03*
X637796Y236221D02*
D03*
X641733Y244095D02*
D03*
X637796Y251969D02*
D03*
X649607Y228347D02*
D03*
X645670Y236221D02*
D03*
X649607Y244095D02*
D03*
X645670Y251969D02*
D03*
X653544Y236221D02*
D03*
Y251969D02*
D03*
X149606Y255906D02*
D03*
X151575Y267717D02*
D03*
X155512Y251969D02*
D03*
X153543Y255906D02*
D03*
X155512Y259843D02*
D03*
X153543Y263780D02*
D03*
X155512Y267717D02*
D03*
X153543Y271654D02*
D03*
X157480Y248032D02*
D03*
X159449Y251969D02*
D03*
X157480Y255906D02*
D03*
X159449Y259843D02*
D03*
X157480Y263780D02*
D03*
X159449Y267717D02*
D03*
X157480Y271654D02*
D03*
X161417Y248032D02*
D03*
X163386Y251969D02*
D03*
X161417Y255906D02*
D03*
X163386Y259843D02*
D03*
X161417Y263780D02*
D03*
X163386Y267717D02*
D03*
X161417Y271654D02*
D03*
X165354Y248032D02*
D03*
X167323Y251969D02*
D03*
X165354Y255906D02*
D03*
X167323Y259843D02*
D03*
X165354Y263780D02*
D03*
X167323Y267717D02*
D03*
X165354Y271654D02*
D03*
X169291Y248032D02*
D03*
X171260Y251969D02*
D03*
X169291Y255906D02*
D03*
X171260Y259843D02*
D03*
X169291Y263780D02*
D03*
X171260Y267717D02*
D03*
X169291Y271654D02*
D03*
X173228Y248032D02*
D03*
Y255906D02*
D03*
Y263780D02*
D03*
X175197Y267717D02*
D03*
X173228Y271654D02*
D03*
X177165Y255906D02*
D03*
X179134Y267717D02*
D03*
X183071Y251969D02*
D03*
X181103Y255906D02*
D03*
X183071Y259843D02*
D03*
X181103Y263780D02*
D03*
X183071Y267717D02*
D03*
X181103Y271654D02*
D03*
X185039Y248032D02*
D03*
X187008Y251969D02*
D03*
X185039Y255906D02*
D03*
X187008Y259843D02*
D03*
X185039Y263780D02*
D03*
X187008Y267717D02*
D03*
X185039Y271654D02*
D03*
X188977Y248032D02*
D03*
X190945Y251969D02*
D03*
X188977Y255906D02*
D03*
X190945Y259843D02*
D03*
X188977Y263780D02*
D03*
X190945Y267717D02*
D03*
X188977Y271654D02*
D03*
X192913Y248032D02*
D03*
X194882Y251969D02*
D03*
X192913Y255906D02*
D03*
X194882Y259843D02*
D03*
X192913Y263780D02*
D03*
X194882Y267717D02*
D03*
X192913Y271654D02*
D03*
X196851Y248032D02*
D03*
X198819Y251969D02*
D03*
X196851Y255906D02*
D03*
X198819Y259843D02*
D03*
X196851Y263780D02*
D03*
X198819Y267717D02*
D03*
X196851Y271654D02*
D03*
X200787Y248032D02*
D03*
Y255906D02*
D03*
Y263780D02*
D03*
X202756Y267717D02*
D03*
X200787Y271654D02*
D03*
X204725Y255906D02*
D03*
X206693Y267717D02*
D03*
X230315D02*
D03*
X232284Y255906D02*
D03*
X234252Y267717D02*
D03*
X238189Y251969D02*
D03*
X236221Y255906D02*
D03*
X238189Y259843D02*
D03*
X236221Y263780D02*
D03*
X238189Y267717D02*
D03*
X236221Y271654D02*
D03*
X240158Y248032D02*
D03*
X242126Y251969D02*
D03*
X240158Y255906D02*
D03*
X242126Y259843D02*
D03*
X240158Y263780D02*
D03*
X242126Y267717D02*
D03*
X240158Y271654D02*
D03*
X244095Y248032D02*
D03*
X246063Y251969D02*
D03*
X244095Y255906D02*
D03*
X246063Y259843D02*
D03*
X244095Y263780D02*
D03*
X246063Y267717D02*
D03*
X244095Y271654D02*
D03*
X248032Y248032D02*
D03*
X250000Y251969D02*
D03*
X248032Y255906D02*
D03*
X250000Y259843D02*
D03*
X248032Y263780D02*
D03*
X250000Y267717D02*
D03*
X248032Y271654D02*
D03*
X251969Y248032D02*
D03*
X253937Y251969D02*
D03*
X251969Y255906D02*
D03*
X253937Y259843D02*
D03*
X251969Y263780D02*
D03*
X253937Y267717D02*
D03*
X251969Y271654D02*
D03*
X255906Y248032D02*
D03*
Y255906D02*
D03*
Y263780D02*
D03*
X257874Y267717D02*
D03*
X255906Y271654D02*
D03*
X261811Y267717D02*
D03*
X263780Y248032D02*
D03*
X265748Y251969D02*
D03*
X263780Y255906D02*
D03*
X265748Y259843D02*
D03*
X263780Y263780D02*
D03*
X265748Y267717D02*
D03*
X263780Y271654D02*
D03*
X267717Y248032D02*
D03*
X269685Y251969D02*
D03*
X267717Y255906D02*
D03*
X269685Y259843D02*
D03*
X267717Y263780D02*
D03*
X269685Y267717D02*
D03*
X267717Y271654D02*
D03*
X271654Y248032D02*
D03*
X273622Y251969D02*
D03*
X271654Y255906D02*
D03*
X273622Y259843D02*
D03*
X271654Y263780D02*
D03*
X273622Y267717D02*
D03*
X271654Y271654D02*
D03*
X275591Y248032D02*
D03*
X277559Y251969D02*
D03*
X275591Y255906D02*
D03*
X277559Y259843D02*
D03*
X275591Y263780D02*
D03*
X277559Y267717D02*
D03*
X275591Y271654D02*
D03*
X279528Y248032D02*
D03*
X281496Y251969D02*
D03*
X279528Y255906D02*
D03*
X281496Y259843D02*
D03*
X279528Y263780D02*
D03*
X281496Y267717D02*
D03*
X279528Y271654D02*
D03*
X283465Y248032D02*
D03*
Y255906D02*
D03*
Y263780D02*
D03*
X285433Y267717D02*
D03*
X283465Y271654D02*
D03*
X289370Y267717D02*
D03*
X293307Y251969D02*
D03*
X331496Y243307D02*
D03*
X82677Y165354D02*
D03*
X88583Y177165D02*
D03*
X82677Y188976D02*
D03*
X88583Y200787D02*
D03*
X82677Y212598D02*
D03*
X88583Y224409D02*
D03*
X82677Y236220D02*
D03*
X88583Y248031D02*
D03*
X82677Y259842D02*
D03*
X88583Y271654D02*
D03*
X82677Y283465D02*
D03*
X88583Y295275D02*
D03*
X82677Y307086D02*
D03*
X88583Y318898D02*
D03*
X82677Y330709D02*
D03*
X88583Y342520D02*
D03*
X82677Y354331D02*
D03*
X88583Y366142D02*
D03*
X82677Y377953D02*
D03*
X88583Y389764D02*
D03*
Y437008D02*
D03*
X82677Y448819D02*
D03*
X88583Y460630D02*
D03*
X94488Y165354D02*
D03*
X100394Y177165D02*
D03*
X94488Y188976D02*
D03*
X100394Y200787D02*
D03*
X94488Y212598D02*
D03*
X100394Y224409D02*
D03*
X94488Y236220D02*
D03*
X100394Y248031D02*
D03*
X94488Y259842D02*
D03*
X100394Y271654D02*
D03*
X94488Y283465D02*
D03*
X100394Y295275D02*
D03*
X94488Y307086D02*
D03*
X100394Y318898D02*
D03*
X94488Y330709D02*
D03*
X100394Y342520D02*
D03*
X94488Y354331D02*
D03*
X100394Y366142D02*
D03*
X94488Y377953D02*
D03*
X100394Y389764D02*
D03*
Y437008D02*
D03*
X94488Y448819D02*
D03*
X100394Y460630D02*
D03*
X106299Y165354D02*
D03*
X112205Y177165D02*
D03*
X106299Y188976D02*
D03*
X112205Y200787D02*
D03*
X106299Y212598D02*
D03*
X112205Y224409D02*
D03*
X106299Y236220D02*
D03*
X112205Y248031D02*
D03*
X106299Y259842D02*
D03*
X112205Y271654D02*
D03*
X106299Y283465D02*
D03*
X112205Y295275D02*
D03*
X106299Y307086D02*
D03*
X112205Y318898D02*
D03*
X106299Y330709D02*
D03*
X112205Y342520D02*
D03*
X106299Y354331D02*
D03*
X112205Y366142D02*
D03*
X106299Y377953D02*
D03*
X112205Y389764D02*
D03*
X106299Y401575D02*
D03*
Y425197D02*
D03*
X112205Y437008D02*
D03*
X106299Y448819D02*
D03*
X112205Y460630D02*
D03*
X118110Y165354D02*
D03*
X124016Y177165D02*
D03*
X118110Y188976D02*
D03*
X124016Y200787D02*
D03*
X118110Y212598D02*
D03*
X124016Y224409D02*
D03*
X118110Y236220D02*
D03*
X124016Y248031D02*
D03*
X118110Y259842D02*
D03*
X124016Y271654D02*
D03*
X118110Y283465D02*
D03*
X124016Y295275D02*
D03*
Y318898D02*
D03*
X118110Y354331D02*
D03*
X124016Y366142D02*
D03*
X118110Y377953D02*
D03*
X124016Y389764D02*
D03*
X118110Y401575D02*
D03*
Y425197D02*
D03*
X124016Y437008D02*
D03*
X118110Y448819D02*
D03*
X124016Y460630D02*
D03*
X129921Y165354D02*
D03*
X135827Y177165D02*
D03*
X129921Y188976D02*
D03*
X135827Y200787D02*
D03*
X129921Y212598D02*
D03*
X135827Y224409D02*
D03*
X129921Y236220D02*
D03*
X135827Y248031D02*
D03*
X129921Y259842D02*
D03*
X135827Y271654D02*
D03*
X129921Y283465D02*
D03*
X135827Y295275D02*
D03*
Y318898D02*
D03*
Y342520D02*
D03*
X129921Y354331D02*
D03*
X135827Y366142D02*
D03*
X129921Y377953D02*
D03*
X135827Y389764D02*
D03*
X129921Y401575D02*
D03*
Y425197D02*
D03*
X135827Y437008D02*
D03*
X129921Y448819D02*
D03*
X135827Y460630D02*
D03*
X141732Y165354D02*
D03*
X147638Y177165D02*
D03*
X141732Y188976D02*
D03*
X147638Y200787D02*
D03*
X141732Y212598D02*
D03*
Y236220D02*
D03*
Y259842D02*
D03*
Y283465D02*
D03*
X147638Y295275D02*
D03*
X141732Y354331D02*
D03*
Y377953D02*
D03*
X147638Y389764D02*
D03*
X141732Y401575D02*
D03*
Y425197D02*
D03*
X147638Y437008D02*
D03*
X141732Y448819D02*
D03*
X147638Y460630D02*
D03*
X153543Y165354D02*
D03*
X159449Y177165D02*
D03*
X153543Y188976D02*
D03*
X159449Y200787D02*
D03*
X153543Y212598D02*
D03*
X159449Y224409D02*
D03*
X153543Y283465D02*
D03*
X159449Y295275D02*
D03*
Y318898D02*
D03*
Y342520D02*
D03*
Y437008D02*
D03*
X153543Y448819D02*
D03*
X159449Y460630D02*
D03*
X165354Y165354D02*
D03*
X171260Y177165D02*
D03*
X165354Y188976D02*
D03*
X171260Y200787D02*
D03*
X165354Y212598D02*
D03*
X171260Y224409D02*
D03*
X165354Y283465D02*
D03*
X171260Y295275D02*
D03*
X165354Y307086D02*
D03*
X171260Y366142D02*
D03*
Y389764D02*
D03*
Y413386D02*
D03*
X165354Y425197D02*
D03*
X171260Y437008D02*
D03*
X165354Y448819D02*
D03*
X171260Y460630D02*
D03*
X177165Y165354D02*
D03*
Y188976D02*
D03*
X183071Y200787D02*
D03*
X177165Y212598D02*
D03*
X183071Y224409D02*
D03*
Y295275D02*
D03*
X177165Y307086D02*
D03*
X183071Y318898D02*
D03*
Y342520D02*
D03*
Y366142D02*
D03*
Y389764D02*
D03*
Y413386D02*
D03*
X177165Y425197D02*
D03*
X194882Y200787D02*
D03*
X188976Y212598D02*
D03*
X194882Y224409D02*
D03*
X188976Y283465D02*
D03*
X194882Y295275D02*
D03*
Y318898D02*
D03*
Y366142D02*
D03*
Y389764D02*
D03*
Y413386D02*
D03*
X206693Y200787D02*
D03*
X200787Y212598D02*
D03*
Y283465D02*
D03*
X206693Y295275D02*
D03*
Y318898D02*
D03*
Y342520D02*
D03*
Y366142D02*
D03*
Y389764D02*
D03*
X218504Y200787D02*
D03*
X212598Y212598D02*
D03*
X218504Y224409D02*
D03*
Y295275D02*
D03*
Y318898D02*
D03*
Y366142D02*
D03*
X212598Y377953D02*
D03*
Y401575D02*
D03*
X218504Y437008D02*
D03*
Y460630D02*
D03*
X230315Y200787D02*
D03*
X224409Y212598D02*
D03*
X230315Y318898D02*
D03*
X224409Y377953D02*
D03*
X230315Y437008D02*
D03*
X224409Y448819D02*
D03*
X230315Y460630D02*
D03*
X242126Y200787D02*
D03*
X236220Y212598D02*
D03*
X242126Y224409D02*
D03*
Y295275D02*
D03*
Y318898D02*
D03*
X236220Y330709D02*
D03*
X242126Y366142D02*
D03*
Y437008D02*
D03*
X236220Y448819D02*
D03*
X242126Y460630D02*
D03*
X253937Y200787D02*
D03*
X248031Y212598D02*
D03*
X253937Y224409D02*
D03*
X248031Y283465D02*
D03*
X253937Y295275D02*
D03*
X248031Y330709D02*
D03*
X253937Y366142D02*
D03*
Y389764D02*
D03*
Y437008D02*
D03*
X248031Y448819D02*
D03*
X253937Y460630D02*
D03*
X265748Y200787D02*
D03*
X259842Y212598D02*
D03*
X265748Y224409D02*
D03*
Y295275D02*
D03*
X259842Y307086D02*
D03*
Y377953D02*
D03*
X265748Y437008D02*
D03*
X259842Y448819D02*
D03*
X277559Y200787D02*
D03*
X271654Y212598D02*
D03*
X277559Y224409D02*
D03*
X271654Y283465D02*
D03*
X277559Y295275D02*
D03*
X271654Y307086D02*
D03*
X277559Y342520D02*
D03*
X271654Y377953D02*
D03*
Y401575D02*
D03*
X277559Y437008D02*
D03*
X271654Y448819D02*
D03*
X289370Y200787D02*
D03*
X283465Y212598D02*
D03*
Y283465D02*
D03*
X289370Y295275D02*
D03*
X283465Y307086D02*
D03*
X289370Y318898D02*
D03*
Y366142D02*
D03*
X301181Y200787D02*
D03*
X295275Y212598D02*
D03*
X301181Y224409D02*
D03*
X295275Y236220D02*
D03*
Y283465D02*
D03*
X301181Y295275D02*
D03*
X295275Y307086D02*
D03*
X301181Y318898D02*
D03*
X295275Y354331D02*
D03*
X301181Y366142D02*
D03*
Y437008D02*
D03*
X295275Y448819D02*
D03*
X301181Y460630D02*
D03*
X312992Y200787D02*
D03*
X307086Y212598D02*
D03*
Y236220D02*
D03*
Y283465D02*
D03*
X312992Y295275D02*
D03*
X307086Y307086D02*
D03*
X312992Y318898D02*
D03*
X307086Y330709D02*
D03*
X312992Y342520D02*
D03*
Y437008D02*
D03*
X307086Y448819D02*
D03*
X312992Y460630D02*
D03*
X324803Y200787D02*
D03*
X318898Y212598D02*
D03*
X324803Y271654D02*
D03*
X318898Y283465D02*
D03*
X324803Y295275D02*
D03*
X318898Y307086D02*
D03*
Y330709D02*
D03*
X324803Y342520D02*
D03*
Y437008D02*
D03*
X318898Y448819D02*
D03*
X336614Y200787D02*
D03*
X330709Y212598D02*
D03*
X336614Y224409D02*
D03*
X330709Y259842D02*
D03*
X336614Y271654D02*
D03*
X330709Y283465D02*
D03*
X336614Y295275D02*
D03*
X330709Y307086D02*
D03*
Y330709D02*
D03*
X336614Y342520D02*
D03*
X330709Y354331D02*
D03*
X336614Y437008D02*
D03*
Y460630D02*
D03*
X348425Y200787D02*
D03*
Y224409D02*
D03*
Y248031D02*
D03*
X342520Y259842D02*
D03*
Y283465D02*
D03*
X348425Y295275D02*
D03*
X342520Y307086D02*
D03*
Y330709D02*
D03*
X348425Y437008D02*
D03*
Y460630D02*
D03*
X360236Y200787D02*
D03*
X354331Y283465D02*
D03*
X360236Y295275D02*
D03*
X354331Y307086D02*
D03*
Y330709D02*
D03*
X372047Y200787D02*
D03*
X366142Y283465D02*
D03*
X372047Y295275D02*
D03*
X366142Y307086D02*
D03*
X372047Y318898D02*
D03*
X366142Y330709D02*
D03*
X372047Y342520D02*
D03*
X383858Y200787D02*
D03*
X377953Y283465D02*
D03*
X383858Y295275D02*
D03*
X377953Y307086D02*
D03*
X383858Y318898D02*
D03*
X377953Y330709D02*
D03*
X383858Y342520D02*
D03*
Y460630D02*
D03*
X395669Y200787D02*
D03*
X389764Y236220D02*
D03*
X395669Y248031D02*
D03*
X389764Y259842D02*
D03*
X395669Y271654D02*
D03*
X389764Y283465D02*
D03*
X395669Y295275D02*
D03*
X389764Y307086D02*
D03*
X395669Y318898D02*
D03*
X389764Y330709D02*
D03*
X395669Y342520D02*
D03*
X389764Y425197D02*
D03*
X395669Y460630D02*
D03*
X407480Y200787D02*
D03*
X401575Y236220D02*
D03*
X407480Y248031D02*
D03*
X401575Y259842D02*
D03*
X407480Y271654D02*
D03*
X401575Y283465D02*
D03*
X407480Y295275D02*
D03*
X401575Y307086D02*
D03*
X407480Y318898D02*
D03*
Y460630D02*
D03*
X419291Y200787D02*
D03*
Y318898D02*
D03*
Y342520D02*
D03*
Y366142D02*
D03*
Y437008D02*
D03*
X413386Y448819D02*
D03*
X419291Y460630D02*
D03*
X431102Y200787D02*
D03*
Y318898D02*
D03*
Y342520D02*
D03*
Y366142D02*
D03*
Y389764D02*
D03*
Y413386D02*
D03*
X425197Y425197D02*
D03*
X431102Y460630D02*
D03*
X442913Y200787D02*
D03*
Y366142D02*
D03*
Y413386D02*
D03*
X437008Y425197D02*
D03*
X442913Y437008D02*
D03*
Y460630D02*
D03*
X454724Y200787D02*
D03*
Y271654D02*
D03*
Y342520D02*
D03*
Y366142D02*
D03*
Y413386D02*
D03*
X448819Y448819D02*
D03*
X454724Y460630D02*
D03*
X466535Y200787D02*
D03*
Y271654D02*
D03*
X460630Y283465D02*
D03*
X466535Y318898D02*
D03*
Y342520D02*
D03*
Y389764D02*
D03*
X460630Y401575D02*
D03*
X466535Y413386D02*
D03*
X460630Y448819D02*
D03*
X466535Y460630D02*
D03*
X478346Y200787D02*
D03*
X472441Y283465D02*
D03*
X478346Y295275D02*
D03*
X472441Y307086D02*
D03*
X478346Y318898D02*
D03*
X472441Y330709D02*
D03*
X478346Y389764D02*
D03*
Y413386D02*
D03*
X472441Y448819D02*
D03*
X478346Y460630D02*
D03*
X490157Y200787D02*
D03*
X484252Y283465D02*
D03*
Y307086D02*
D03*
Y330709D02*
D03*
X490157Y389764D02*
D03*
Y413386D02*
D03*
X484252Y448819D02*
D03*
X490157Y460630D02*
D03*
X501968Y200787D02*
D03*
X496063Y330709D02*
D03*
X501968Y389764D02*
D03*
Y413386D02*
D03*
X496063Y448819D02*
D03*
X501968Y460630D02*
D03*
X513779Y200787D02*
D03*
X507874Y330709D02*
D03*
Y401575D02*
D03*
Y448819D02*
D03*
X513779Y460630D02*
D03*
X525590Y200787D02*
D03*
Y318898D02*
D03*
X519685Y330709D02*
D03*
X525590Y389764D02*
D03*
X519685Y401575D02*
D03*
X525590Y413386D02*
D03*
X519685Y448819D02*
D03*
X525590Y460630D02*
D03*
X537401Y200787D02*
D03*
X531496Y259842D02*
D03*
X537401Y271654D02*
D03*
X531496Y283465D02*
D03*
X537401Y318898D02*
D03*
X531496Y330709D02*
D03*
X537401Y389764D02*
D03*
X531496Y401575D02*
D03*
X537401Y437008D02*
D03*
X531496Y448819D02*
D03*
X537401Y460630D02*
D03*
X549212Y200787D02*
D03*
X543307Y259842D02*
D03*
Y283465D02*
D03*
X549212Y318898D02*
D03*
X543307Y330709D02*
D03*
X549212Y389764D02*
D03*
Y413386D02*
D03*
Y437008D02*
D03*
X543307Y448819D02*
D03*
X549212Y460630D02*
D03*
X561023Y200787D02*
D03*
X555118Y212598D02*
D03*
Y259842D02*
D03*
X561023Y271654D02*
D03*
X555118Y283465D02*
D03*
Y307086D02*
D03*
Y330709D02*
D03*
X561023Y389764D02*
D03*
Y413386D02*
D03*
Y437008D02*
D03*
X555118Y448819D02*
D03*
X561023Y460630D02*
D03*
X572834Y200787D02*
D03*
X566929Y212598D02*
D03*
Y259842D02*
D03*
X572834Y271654D02*
D03*
X566929Y354331D02*
D03*
X572834Y389764D02*
D03*
Y413386D02*
D03*
Y437008D02*
D03*
X566929Y448819D02*
D03*
X584646Y200787D02*
D03*
X578740Y212598D02*
D03*
X584646Y271654D02*
D03*
Y295275D02*
D03*
Y318898D02*
D03*
X578740Y330709D02*
D03*
X584646Y366142D02*
D03*
Y389764D02*
D03*
X578740Y401575D02*
D03*
X584646Y413386D02*
D03*
X578740Y425197D02*
D03*
X596456Y200787D02*
D03*
X590551Y212598D02*
D03*
Y259842D02*
D03*
Y283465D02*
D03*
X596456Y389764D02*
D03*
X590551Y401575D02*
D03*
X596456Y413386D02*
D03*
X590551Y425197D02*
D03*
X608267Y200787D02*
D03*
X602362Y212598D02*
D03*
X608267Y318898D02*
D03*
X602362Y330709D02*
D03*
Y354331D02*
D03*
X608267Y366142D02*
D03*
Y389764D02*
D03*
X602362Y401575D02*
D03*
X608267Y413386D02*
D03*
X602362Y425197D02*
D03*
X608267Y437008D02*
D03*
X614173Y165354D02*
D03*
X620079Y177165D02*
D03*
X614173Y188976D02*
D03*
X620079Y200787D02*
D03*
X614173Y212598D02*
D03*
Y259842D02*
D03*
X620079Y271654D02*
D03*
Y366142D02*
D03*
X614173Y377953D02*
D03*
X620079Y389764D02*
D03*
X614173Y401575D02*
D03*
X620079Y413386D02*
D03*
X614173Y425197D02*
D03*
X620079Y437008D02*
D03*
X614173Y448819D02*
D03*
X620079Y460630D02*
D03*
X625984Y165354D02*
D03*
X631890Y177165D02*
D03*
X625984Y188976D02*
D03*
X631890Y200787D02*
D03*
X625984Y212598D02*
D03*
Y259842D02*
D03*
Y283465D02*
D03*
X631890Y318898D02*
D03*
Y342520D02*
D03*
X625984Y354331D02*
D03*
X631890Y366142D02*
D03*
X625984Y377953D02*
D03*
Y401575D02*
D03*
X631890Y413386D02*
D03*
X625984Y425197D02*
D03*
X631890Y437008D02*
D03*
X625984Y448819D02*
D03*
X631890Y460630D02*
D03*
X637795Y165354D02*
D03*
X643701Y177165D02*
D03*
X637795Y188976D02*
D03*
X643701Y200787D02*
D03*
X637795Y212598D02*
D03*
Y259842D02*
D03*
X643701Y271654D02*
D03*
X637795Y283465D02*
D03*
Y307086D02*
D03*
Y330709D02*
D03*
Y354331D02*
D03*
Y377953D02*
D03*
X643701Y389764D02*
D03*
X637795Y401575D02*
D03*
X643701Y413386D02*
D03*
X637795Y425197D02*
D03*
X643701Y437008D02*
D03*
X637795Y448819D02*
D03*
X643701Y460630D02*
D03*
X649606Y165354D02*
D03*
X655512Y177165D02*
D03*
X649606Y188976D02*
D03*
X655512Y200787D02*
D03*
X649606Y212598D02*
D03*
Y259842D02*
D03*
X655512Y271654D02*
D03*
Y295275D02*
D03*
Y318898D02*
D03*
Y342520D02*
D03*
Y366142D02*
D03*
X649606Y377953D02*
D03*
X655512Y389764D02*
D03*
X649606Y401575D02*
D03*
X655512Y413386D02*
D03*
X649606Y425197D02*
D03*
X655512Y437008D02*
D03*
X649606Y448819D02*
D03*
X655512Y460630D02*
D03*
X661417Y165354D02*
D03*
X667323Y177165D02*
D03*
X661417Y188976D02*
D03*
X667323Y200787D02*
D03*
X661417Y212598D02*
D03*
X667323Y224409D02*
D03*
Y248031D02*
D03*
Y271654D02*
D03*
Y295275D02*
D03*
Y318898D02*
D03*
X661417Y330709D02*
D03*
X667323Y342520D02*
D03*
X661417Y354331D02*
D03*
X667323Y366142D02*
D03*
X661417Y377953D02*
D03*
X667323Y389764D02*
D03*
X661417Y401575D02*
D03*
X667323Y413386D02*
D03*
X661417Y425197D02*
D03*
X667323Y437008D02*
D03*
X661417Y448819D02*
D03*
X667323Y460630D02*
D03*
X673228Y165354D02*
D03*
X679134Y177165D02*
D03*
X673228Y188976D02*
D03*
X679134Y200787D02*
D03*
X673228Y212598D02*
D03*
X679134Y224409D02*
D03*
X673228Y236220D02*
D03*
X679134Y248031D02*
D03*
X673228Y259842D02*
D03*
X679134Y271654D02*
D03*
X673228Y283465D02*
D03*
X679134Y295275D02*
D03*
X673228Y307086D02*
D03*
X679134Y318898D02*
D03*
X673228Y330709D02*
D03*
X679134Y342520D02*
D03*
X673228Y354331D02*
D03*
X679134Y366142D02*
D03*
X673228Y377953D02*
D03*
X679134Y389764D02*
D03*
X673228Y401575D02*
D03*
X679134Y413386D02*
D03*
X673228Y425197D02*
D03*
X679134Y437008D02*
D03*
X673228Y448819D02*
D03*
X679134Y460630D02*
D03*
X685039Y165354D02*
D03*
X690945Y177165D02*
D03*
X685039Y188976D02*
D03*
X690945Y200787D02*
D03*
X685039Y212598D02*
D03*
X690945Y224409D02*
D03*
X685039Y236220D02*
D03*
X690945Y248031D02*
D03*
X685039Y259842D02*
D03*
X690945Y271654D02*
D03*
X685039Y283465D02*
D03*
X690945Y295275D02*
D03*
X685039Y307086D02*
D03*
X690945Y318898D02*
D03*
X685039Y330709D02*
D03*
X690945Y342520D02*
D03*
X685039Y354331D02*
D03*
X690945Y366142D02*
D03*
X685039Y377953D02*
D03*
X690945Y389764D02*
D03*
X685039Y401575D02*
D03*
X690945Y413386D02*
D03*
X685039Y425197D02*
D03*
X690945Y437008D02*
D03*
X685039Y448819D02*
D03*
X690945Y460630D02*
D03*
X696850Y165354D02*
D03*
X702756Y177165D02*
D03*
X696850Y188976D02*
D03*
X702756Y200787D02*
D03*
X696850Y212598D02*
D03*
X702756Y224409D02*
D03*
X696850Y236220D02*
D03*
X702756Y248031D02*
D03*
X696850Y259842D02*
D03*
X702756Y271654D02*
D03*
X696850Y283465D02*
D03*
X702756Y295275D02*
D03*
X696850Y307086D02*
D03*
X702756Y318898D02*
D03*
X696850Y330709D02*
D03*
X702756Y342520D02*
D03*
X696850Y354331D02*
D03*
X702756Y366142D02*
D03*
X696850Y377953D02*
D03*
X702756Y389764D02*
D03*
X696850Y401575D02*
D03*
X702756Y413386D02*
D03*
X696850Y425197D02*
D03*
X702756Y437008D02*
D03*
X696850Y448819D02*
D03*
X702756Y460630D02*
D03*
D100*
X395748Y349213D02*
X405748D01*
X383465Y362598D02*
X403937D01*
X369685Y376378D02*
X383465Y362598D01*
D101*
X262992Y261614D02*
D03*
D102*
X177165D02*
D03*
D103*
X403937Y344685D02*
D03*
M02*
